<svg width="50" height="51" viewBox="0 0 50 51" fill="none" xmlns="http://www.w3.org/2000/svg">
<path fill-rule="evenodd" clip-rule="evenodd" d="M25 2.20364C12.2808 2.20364 1.96981 12.5146 1.96981 25.2338C1.96981 37.9531 12.2808 48.264 25 48.264C37.7193 48.264 48.0302 37.9531 48.0302 25.2338C48.0302 12.5146 37.7193 2.20364 25 2.20364ZM0 25.2338C0 11.4267 11.1929 0.233826 25 0.233826C38.8072 0.233826 50 11.4267 50 25.2338C50 39.041 38.8072 50.2338 25 50.2338C11.1929 50.2338 0 39.041 0 25.2338ZM27.9526 16.5324C28.3373 16.917 28.3373 17.5406 27.9526 17.9252L20.644 25.2338L27.9526 32.5424C28.3373 32.9271 28.3373 33.5507 27.9526 33.9353C27.568 34.3199 26.9444 34.3199 26.5598 33.9353L18.5547 25.9303C18.1701 25.5456 18.1701 24.922 18.5547 24.5374L26.5598 16.5324C26.9444 16.1477 27.568 16.1477 27.9526 16.5324Z" fill="#282A2B"/>
</svg>
