<svg width="99" height="45" viewBox="0 0 99 45" fill="none" xmlns="http://www.w3.org/2000/svg">
<path d="M70.8998 14.8786C79.7198 18.2357 93.5697 21.8774 98.9998 22.6176C93.5697 23.3578 79.7198 26.9987 70.8998 30.3558C62.0798 33.7129 48.7873 41.2375 42.8909 44.8027C44.3443 41.731 47.4417 36.1986 50.4452 31.9661C53.35 27.8727 56.5179 24.6223 57.5891 23.5232L57.6179 23.4936H31.0607C28.8477 23.5702 23.8007 23.8026 20.7654 25.84C17.956 27.7258 16.2914 31.1799 15.6661 32.5269C14.9764 30.795 12.8081 27.2152 10.9515 25.84C8.35374 23.9157 4.60136 22.6176 0.993164 22.6176C4.60136 22.6176 8.35374 21.3187 10.9515 19.3944C12.8081 18.0191 14.9764 14.4393 15.6661 12.7075C16.2914 14.0545 17.956 17.5086 20.7654 19.3944C23.8007 21.4318 28.8477 21.6642 31.0607 21.7408H57.6179L57.5891 21.7112C56.5179 20.6121 53.35 17.3616 50.4452 13.2682C47.4417 9.03579 44.3443 3.50339 42.8909 0.431641C48.7873 3.99689 62.0798 11.5215 70.8998 14.8786Z" fill="#008E53"/>
</svg>
