<svg width="51" height="51" viewBox="0 0 51 51" fill="none" xmlns="http://www.w3.org/2000/svg">
<path fill-rule="evenodd" clip-rule="evenodd" d="M25.3145 2.20364C38.0337 2.20364 48.3446 12.5146 48.3446 25.2338C48.3446 37.9531 38.0337 48.264 25.3145 48.264C12.5951 48.264 2.28427 37.9531 2.28427 25.2338C2.28427 12.5146 12.5951 2.20364 25.3145 2.20364ZM50.3145 25.2338C50.3145 11.4267 39.1216 0.233826 25.3145 0.233826C11.5072 0.233826 0.314452 11.4267 0.314452 25.2338C0.314452 39.041 11.5072 50.2338 25.3145 50.2338C39.1216 50.2338 50.3145 39.041 50.3145 25.2338ZM22.3618 16.5324C21.9772 16.917 21.9772 17.5406 22.3618 17.9252L29.6704 25.2338L22.3618 32.5424C21.9772 32.9271 21.9772 33.5507 22.3618 33.9353C22.7465 34.3199 23.3701 34.3199 23.7547 33.9353L31.7597 25.9303C32.1444 25.5456 32.1444 24.922 31.7597 24.5374L23.7547 16.5324C23.3701 16.1477 22.7465 16.1477 22.3618 16.5324Z" fill="#282A2B"/>
</svg>
