<svg xmlns="http://www.w3.org/2000/svg" width="1920" height="1080" viewBox="0 0 1920 1080"><path d="M960,304.7028c253.7866,0,492.2784,39.0757,671.5445,110.029,86.7414,34.3323,154.7469,74.221,202.1271,118.559,48.26,45.1624,72.7317,92.8832,72.7317,141.8384s-24.4714,96.676-72.7329,141.8384c-47.3823,44.3371-115.3857,84.2259-202.1271,118.5582C1452.279,1006.4792,1213.7863,1045.5547,960,1045.5547s-492.2785-39.0756-671.5445-110.0289c-86.7415-34.3323-154.7468-74.2211-202.1271-118.5582-48.26-45.1624-72.7317-92.8832-72.7317-141.8384S38.0682,578.4523,86.33,533.29c47.3821-44.3372,115.3856-84.2259,202.1271-118.559C467.7209,343.7776,706.2135,304.702,960,304.702m0-6.887c-526.4882,0-953.2907,168.9284-953.2907,377.3125S433.5108,1052.44,960,1052.44s953.2907-168.9284,953.2907-377.3125S1486.4885,297.8159,960,297.8159Z" fill="#f7d321"/><path d="M68.7566,866.205s57.6864-.8249,70.025-12.2693c14.5866-13.5293,20.3493-89.7759,20.3493-89.7759s3.9929,78.9338,21.1725,89.6125c16.0456,9.9746,66.5084,13.0313,66.5084,13.0313s-56.0572,8.8526-68.5287,29.0273c-10.1741,16.4585-17.9554,88.8781-17.9554,88.8781s-5.3472-68.8539-18.5536-88.8781C125.9781,871.8807,68.7566,866.205,68.7566,866.205Z" fill="#f7d321"/><polygon points="1834.679 569.235 1746.487 487.141 1776.165 603.916 1728.988 493.046 1708.603 611.8 1710.601 491.326 1643.677 591.523 1694.501 482.276 1592.61 546.592 1683.476 467.46 1564.236 484.774 1679.431 449.442 1563.458 416.756 1683.061 431.336 1590.411 354.303 1693.749 416.269 1640.436 308.214 1709.632 406.852 1704.88 286.456 1727.977 404.713 1772.604 292.791 1745.602 410.221 1831.896 326.128 1759.467 422.419 1872.505 380.695 1767.175 439.202 1887.407 447.062 1767.387 457.67 1874.025 513.752 1760.069 474.627 1834.679 569.235" fill="#f7d321"/><g style="isolation:isolate"><g style="isolation:isolate"><path d="M353.3854,219.9329c22.7265-2.2954,35.124-22.4976,38.7968-28.9258l1.377.689c-7.1162,12.8559-20.6612,30.7622-47.9795,32.3691-31.6807,1.6069-63.36-15.6108-64.2793-53.4893-1.1475-39.7158,34.8945-58.31,60.1475-58.31,13.0849,0,31.45,5.9687,43.3876,12.167l-3.4433,19.0542h-1.377c-5.51-13.7739-27.3183-33.5171-48.8984-28.4663-28.2363,6.4277-38.5674,42.7-28.9258,70.248C310.6852,209.3728,330.1988,222.2288,353.3854,219.9329Z" fill="#008e53"/></g><g style="isolation:isolate"><path d="M520.7359,221.0808v1.607H492.4986v-1.607c3.4434-2.0664,4.5918-5.9687,3.9024-13.5444-.918-7.5757-4.1319-46.3731-5.2793-58.3106-1.8369-17.2177-10.3311-36.7309-30.0742-32.8281-25.711,5.05-30.3028,53.03-30.3028,72.314v18.8247c0,8.0347,1.6074,11.478,5.0508,13.5444v1.607H407.3287v-1.607c3.6729-2.0664,5.28-5.51,5.28-13.5444V74.8455c0-8.0347-.6885-10.3306-5.28-11.0191V61.99l21.5791-4.8213h1.8369v112.03c2.7549-25.7119,10.79-56.9331,40.6338-56.9331,18.5947,0,34.6651,12.8559,37.42,40.4038,2.5254,22.2681,4.5909,46.373,5.51,54.8672C515.2262,215.8005,517.2926,219.0144,520.7359,221.0808Z" fill="#008e53"/></g><path d="M644.0094,186.1863c-1.377,16.2993-15.84,37.8789-48.4385,37.8789-31.6807,0-62.2129-15.6108-63.1318-53.4893-1.1475-39.7158,34.8945-56.9331,60.1474-58.31,19.5127-.9185,46.3721,8.4941,49.5869,36.272H620.8229C633.9088,151.9807,645.8463,165.2957,644.0094,186.1863Zm-32.5987-37.6489h-59.458a66.2971,66.2971,0,0,0,1.6065,36.7309c8.4941,24.1045,25.7119,34.6646,49.1279,33.7461,19.7432-.918,36.9609-14.4624,39.2559-32.3691C644.6979,162.77,628.858,148.5374,611.4107,148.5374Zm-58.999-1.837h73.2324c-2.9843-19.9721-20.8906-36.0419-43.3886-31.68C566.6451,118.0046,556.5436,131.09,552.4117,146.7Z" fill="#008e53"/><path d="M732.6207,219.9329c22.7266-2.2954,35.124-22.4976,38.7969-28.9258l1.3769.689c-7.1162,12.8559-20.6611,30.7622-47.9795,32.3691-31.6806,1.6069-63.36-15.6108-64.2793-53.4893-1.1474-39.7158,34.8946-58.31,60.1475-58.31,13.085,0,31.45,5.9687,43.3877,12.167l-3.4434,19.0542h-1.3769c-5.51-13.7739-27.3194-33.5171-48.8985-28.4663-28.2363,6.4277-38.5673,42.7-28.9257,70.248C689.9205,209.3728,709.4342,222.2288,732.6207,219.9329Z" fill="#008e53"/><path d="M893.3131,221.0808v1.607H858.42v-1.607c5.2793-4.1323,2.7549-9.8716-4.1328-21.58l-25.9414-42.2407-18.5947,16.3v32.8281c0,8.0347,1.6074,12.626,5.28,14.6924v1.607H786.5641v-1.607c3.4433-2.0664,5.0507-6.6577,5.0507-14.6924V73.468c0-8.0346-.6884-8.9531-5.0507-9.6416V61.99l21.5791-4.8213h1.6074V171.4939l24.334-21.35c23.6455-21.1206,29.1552-30.0737,19.9726-36.0425v-1.8364H884.36v1.8364c-12.626,5.0508-23.6455,14.4629-44.5362,32.8281l21.12,33.7466C876.7848,206.3884,882.983,216.26,893.3131,221.0808Z" fill="#008e53"/><path d="M1077.1939,163.23c0,36.731-31.4511,60.8355-62.2128,60.8355-30.9922,0-57.3926-18.8247-57.3926-50.9644,0-37.8789,31.4511-60.8354,62.2129-60.8354S1077.1939,131.5491,1077.1939,163.23Zm-19.2841-7.3461c-8.0342-27.5484-29.6143-47.0616-55.7852-39.4859s-33.2871,36.2715-25.2519,64.0493c8.0341,27.5484,29.6142,47.291,55.7851,39.4859C1058.8287,212.3572,1065.9449,183.6609,1057.91,155.8836Z" fill="#008e53"/><g style="isolation:isolate"><path d="M1200.2379,222.6878h-23.416V166.9026c-2.9844,25.9414-10.79,57.1626-40.6338,57.1626-21.12,0-37.8789-13.3149-37.8789-40.4043V129.9421c0-8.0351-.6885-10.3305-5.0508-11.02v-1.6069l21.5791-5.05h1.6074v74.8393c0,19.9722,10.3311,36.5015,30.0733,32.8282,25.7119-5.05,30.3037-53.03,30.3037-72.314V129.9421c0-8.0351-.6895-10.3305-5.0508-11.02v-1.6069l21.5791-5.05h1.6074v95.271c0,8.0347,1.6065,11.478,5.28,13.5444Z" fill="#008e53"/></g><g style="isolation:isolate"><path d="M1296.4234,182.5134c-4.3613,21.5791-14.0039,41.5518-38.1084,41.5518-20.4316,0-33.0576-13.3149-33.0576-40.4043V114.1018h-13.5449v-1.8364c19.5137,0,21.1211-20.4316,21.1211-31.4512h18.1357c0,17.6768-17.4472,30.7622-31.2216,31.4512h50.7343v1.8364h-27.0888v73.0029c0,19.9722,5.51,35.3536,25.0234,32.8282,15.1514-2.0659,22.7266-20.2022,26.8594-37.8789Z" fill="#008e53"/></g><g style="isolation:isolate"><path d="M1528.0543,221.0808v1.607H1499.818v-1.607c3.4433-2.0664,4.5908-5.9687,3.9023-13.5444-.918-7.5757-4.1318-46.3731-5.28-58.3106-1.8359-17.2177-8.4941-36.7309-26.4-32.8281-21.12,4.5913-23.875,40.1743-24.1044,64.2788v26.86c0,8.0347,1.6074,11.478,5.0507,13.5444v1.607h-28.2373v-1.607c3.4434-2.0664,5.0508-5.51,5.0508-13.5444V149.2258c0-17.4472-8.0351-36.2719-25.9414-32.8281-25.7119,4.8208-26.8594,52.8008-26.8594,72.314v18.8247c0,8.0347,1.8369,11.478,5.28,13.5444v1.607h-28.4668v-1.607c3.4434-2.0664,5.28-5.51,5.28-13.5444V129.9421c0-8.0351-.6885-10.3305-5.28-11.02v-1.6069l21.5791-5.05h1.6074V163.23c2.5254-24.3344,9.4121-50.9643,36.961-50.9643,17.6767,0,32.8281,15.1514,33.7461,40.4038l.2295,2.5254c2.7548-22.2681,11.249-42.9292,34.4355-42.9292,18.1357,0,30.9912,13.5444,33.7461,40.4038,2.5254,22.2681,4.5918,46.373,5.51,54.8672C1522.5455,215.8005,1524.6109,219.0144,1528.0543,221.0808Z" fill="#008e53"/></g><g style="isolation:isolate"><path d="M1613.9068,156.572s-18.3652,45.6841-26.63,66.1158c-8.2647,20.6611-18.5958,37.8789-36.7315,37.8789-12.3965,0-21.35-5.7393-27.0889-16.2994l17.9063-16.2993,1.3779,1.1475c-2.2959,12.8559.2295,30.5327,12.8555,29.1553,11.9375-1.3775,21.35-16.5288,28.9258-33.5171l-29.3848-69.1c-9.6416-22.4976-14.4629-32.3692-25.4824-41.5518v-1.8364h35.124v1.8364c-5.7393,6.1983-3.9023,12.397,1.3779,25.2525l27.3184,63.82,18.8242-46.8321c8.4942-21.1206,11.249-33.7465.919-42.2407v-1.8364h27.0888v1.8364C1630.4352,124.2029,1622.401,135.4519,1613.9068,156.572Z" fill="#008e53"/></g></g><g style="isolation:isolate"><g style="isolation:isolate"><path d="M733.7789,583.7962c32.7266-3.3057,50.5772-32.3956,55.8662-41.6514l1.9834.9917c-10.248,18.5117-29.751,44.2959-69.0879,46.61-45.6191,2.314-91.2363-22.4785-92.5586-77.0219-1.6533-57.188,50.2461-83.9639,86.6075-83.9639,18.8427,0,45.288,8.5947,62.4775,17.52l-4.958,27.437h-1.9844c-7.9336-19.8339-39.3369-48.2627-70.41-40.99-40.66,9.2559-55.5352,61.4854-41.6514,101.1533C672.2945,568.59,700.3922,587.1018,733.7789,583.7962Z" fill="#008e53"/></g><g style="isolation:isolate"><path d="M958.8941,587.7629H925.5074V541.4837c-8.5957,29.09-26.7763,48.2626-58.5107,48.2626-27.1065,0-53.5518-12.892-57.8487-36.6928-5.62-33.7178,14.545-53.5518,39.9981-64.13-8.5947-19.1729,1.6523-60.1631,45.9492-60.1631,27.4365,0,56.5264,14.5449,56.5264,55.2046v81.9805c0,11.57,2.3135,16.5283,7.2724,19.5034Zm-33.3867-52.2294V484.6262a63.1012,63.1012,0,0,0-19.834-2.9751c-36.0322,0-84.956,17.8506-70.7422,76.03,4.2979,17.8506,23.4708,28.7593,39.9991,27.7676C903.6891,583.7962,918.8961,559.3342,925.5074,535.5335Zm-73.0556-47.9322c17.85-6.6113,37.6845-8.9253,53.2216-8.9253a69.6,69.6,0,0,1,19.834,2.9751v-2.3139c0-25.1231-9.9179-47.271-33.3877-47.271C862.3687,432.0662,842.5348,460.8254,852.4518,487.6013Z" fill="#008e53"/><path d="M1095.42,449.9168l-6.6113,30.4121h-1.6523c-10.2481-28.0982-31.4043-48.5933-50.2461-48.5933-22.4786,0-35.04,12.5615-36.6934,26.1148-4.6269,44.2959,106.7734,32.3955,103.1367,86.2778-1.9824,26.1147-26.4453,45.6181-63.4687,45.6181-26.7754,0-46.6094-8.9252-64.46-22.1479l6.9424-33.0566h1.6523c11.2393,23.14,36.0313,50.5766,65.4522,50.5766,23.8008,0,41.6514-12.2309,43.6348-26.4453,6.28-43.3042-109.087-24.1313-101.1534-88.9224,2.6446-21.4868,14.545-40.99,50.5762-40.99C1059.7184,428.7605,1082.1969,439.6692,1095.42,449.9168Z" fill="#008e53"/></g><g style="isolation:isolate"><path d="M1287.8121,535.2029c-1.9824,23.47-22.8086,54.5434-69.749,54.5434-45.6182,0-89.583-22.4785-90.9053-77.0219-1.6533-57.188,50.2461-81.98,86.6074-83.9639,28.0987-1.3223,66.7754,12.231,71.4024,52.23h-30.7422C1273.2672,485.9485,1290.4566,505.1213,1287.8121,535.2029ZM1240.8727,480.99h-85.6172c-4.2969,17.52-3.3057,37.0234,2.3144,52.8906,12.2305,34.71,37.0235,49.9156,70.74,48.5933,28.43-1.3223,53.2216-20.8257,56.5273-46.61C1288.8043,501.4851,1265.9957,480.99,1240.8727,480.99Zm-84.9561-2.6445h105.45c-4.2969-28.7593-30.0811-51.899-62.4766-45.6182C1176.4117,437.0247,1161.8668,455.867,1155.9166,478.3455Z" fill="#008e53"/></g><g style="isolation:isolate"><path d="M573.1246,771.3069l-6.6113,30.4116H564.86c-10.2471-28.0976-31.4034-48.5928-50.2461-48.5928-22.4785,0-35.04,12.5616-36.6924,26.1143-4.6289,44.2969,106.7724,32.3965,103.1367,86.2783-1.9844,26.1143-26.4453,45.6182-63.4687,45.6182-26.7764,0-46.61-8.9258-64.461-22.1485l6.9414-33.0566h1.6533c11.2393,23.1406,36.0323,50.5772,65.4522,50.5772,23.8008,0,41.6514-12.2315,43.6348-26.4454,6.2812-43.3037-109.087-24.1318-101.1534-88.9228,2.6446-21.4863,14.545-40.99,50.5772-40.99C537.4234,750.1506,559.902,761.0593,573.1246,771.3069Z" fill="#008e53"/></g><g style="isolation:isolate"><path d="M719.898,851.3045c-6.28,31.0722-20.164,59.832-54.873,59.832-29.4209,0-47.6016-19.1729-47.6016-58.18V752.7952H597.92v-2.6446c28.0977,0,30.4121-29.42,30.4121-45.2876h26.1153c0,25.4537-25.1231,44.2959-44.9571,45.2876h73.0547v2.6446H643.5377V857.9158c0,28.7588,7.9336,50.9062,36.0322,47.27,21.8164-2.9756,32.7256-29.09,38.6758-54.544Z" fill="#008e53"/><path d="M880.5553,909.1531H846.8375V828.8259c-4.2969,37.3536-15.5371,82.3106-58.51,82.3106-30.4121,0-54.5439-19.1729-54.5439-58.18V775.6043c0-11.57-.9912-14.8755-7.2725-15.8672v-2.314l31.0733-7.2725h2.3134V857.9158c0,28.7588,14.876,52.56,43.3047,47.27,37.0235-7.2725,43.6348-76.36,43.6348-104.1279V775.6043c0-11.57-.9922-14.8755-7.2725-15.8672v-2.314l31.0733-7.2725h2.3144V887.3357c0,11.57,2.3135,16.5283,7.6026,19.5039Z" fill="#008e53"/><path d="M1067.9879,909.1531h-33.3867V820.5613c-6.2813,38.3457-23.14,90.5752-69.419,90.5752-26.7763,0-59.833-23.14-61.1552-65.4522-1.9825-81.65,74.0468-95.5337,110.74-95.5337a69.59,69.59,0,0,1,19.834,2.9751V696.2683c0-11.57-.9922-14.8755-7.6035-15.8672v-2.6445l31.4043-6.9419h2.3144v216.521c0,11.57,2.3135,16.5283,7.2715,19.5039Zm-33.3867-108.0947v-46.28a72.8452,72.8452,0,0,0-19.834-2.9751c-32.0645.6611-89.584,14.5449-84.9551,98.8388,1.6524,28.76,21.8164,59.8331,50.2461,54.544C1017.0816,897.9138,1034.6012,828.8259,1034.6012,801.0584Z" fill="#008e53"/><path d="M1132.1178,906.84v2.3135h-40.99V906.84c4.958-2.9756,7.2725-7.9336,7.2725-19.5039V775.6043c0-11.57-.9922-14.8755-7.2725-15.8672v-2.314l31.0733-7.2725h2.3144V887.3357C1124.5152,898.906,1126.8287,903.864,1132.1178,906.84Zm-37.0235-199.0015a15.5367,15.5367,0,1,1,15.5362,15.5367A15.5189,15.5189,0,0,1,1095.0943,707.8381Z" fill="#008e53"/></g><g style="isolation:isolate"><path d="M1316.24,856.5935c-1.9843,23.47-22.81,54.543-69.75,54.543-45.6181,0-89.5839-22.4785-90.9062-77.0215-1.6524-57.1885,50.2461-81.981,86.6094-83.9644,28.0976-1.3222,66.7734,12.231,71.4023,52.23h-30.7432C1301.6949,807.3386,1318.8844,826.5115,1316.24,856.5935Zm-46.9414-54.2129h-85.6162c-4.2978,17.52-3.3056,37.0235,2.3135,52.8907,12.2314,34.7089,37.0234,49.915,70.7422,48.5927,28.4277-1.3222,53.2207-20.8252,56.5264-46.61C1317.2311,822.8748,1294.4215,802.3806,1269.2984,802.3806Zm-84.955-2.6445h105.4511c-4.2978-28.76-30.082-51.8994-62.4775-45.6187C1204.8385,758.4148,1190.2936,777.2576,1184.3434,799.7361Z" fill="#008e53"/></g><g style="isolation:isolate"><path d="M1456.4039,771.3069l-6.6113,30.4116H1448.14c-10.248-28.0976-31.4043-48.5928-50.2461-48.5928-22.4785,0-35.04,12.5616-36.6933,26.1143-4.627,44.2969,106.7734,32.3965,103.1367,86.2783-1.9824,26.1143-26.4453,45.6182-63.4688,45.6182-26.7753,0-46.6093-8.9258-64.46-22.1485l6.9424-33.0566h1.6523c11.2393,23.1406,36.0313,50.5772,65.4522,50.5772,23.8007,0,41.6513-12.2315,43.6347-26.4454,6.28-43.3037-109.0869-24.1318-101.1533-88.9228,2.6445-21.4863,14.5449-40.99,50.5762-40.99C1420.7027,750.1506,1443.1812,761.0593,1456.4039,771.3069Z" fill="#008e53"/></g></g></svg>