<?xml version="1.0" encoding="UTF-8"?><svg xmlns="http://www.w3.org/2000/svg" width="1920" height="1116.973" viewBox="0 0 1920 1116.973"><g id="a"/><g id="b"/><g id="c"/><g id="d"/><g id="e"/><g id="f"/><g id="g"/><g id="h"/><g id="i"/><g id="j"/><g id="k"><path d="M959.9998,254.1082c253.7866,0,492.2784,39.0756,671.5445,110.029,86.7414,34.3323,154.7469,74.221,202.1271,118.559,48.26,45.1623,72.7317,92.8832,72.7317,141.8384s-24.4714,96.676-72.7329,141.8384c-47.3823,44.3372-115.3857,84.226-202.1271,118.5582-179.2641,70.9534-417.7568,110.0289-671.5433,110.0289s-492.2784-39.0757-671.5445-110.0289c-86.7415-34.3323-154.7468-74.221-202.1271-118.5582-48.2601-45.1623-72.7317-92.8832-72.7317-141.8384s24.4716-96.6769,72.7332-141.8392c47.3821-44.3372,115.3856-84.2259,202.1271-118.559,179.2641-70.9534,417.7567-110.029,671.5432-110.029m0-6.887C433.5118,247.2204,6.7093,416.1488,6.7093,624.5329s426.8015,377.3125,953.2907,377.3125,953.2907-168.9284,953.2907-377.3125S1486.4885,247.2213,959.9998,247.2213l.0002-.0008Z" fill="#f7d321"/><path d="M68.7566,815.6104s57.6864-.8249,70.025-12.2694c14.5866-13.5292,20.3493-89.7758,20.3493-89.7758,0,0,3.9929,78.9338,21.1725,89.6125,16.0456,9.9746,66.5084,13.0313,66.5084,13.0313,0,0-56.0572,8.8525-68.5287,29.0273-10.1741,16.4585-17.9554,88.8781-17.9554,88.8781,0,0-5.3471-68.8538-18.5535-88.8781-15.796-23.9502-73.0175-29.6258-73.0175-29.6258Z" fill="#f7d321"/><polygon points="1834.6793 518.6403 1746.4866 436.5467 1776.1653 553.3209 1728.9878 442.4516 1708.6032 561.2057 1710.6009 440.7317 1643.6768 540.9288 1694.5011 431.6816 1592.6101 495.9978 1683.4757 416.8653 1564.2356 434.179 1679.4315 398.8471 1563.4581 366.1614 1683.0608 380.741 1590.4109 303.7085 1693.7495 365.6745 1640.4358 257.6197 1709.6315 356.257 1704.8802 235.8611 1727.9769 354.1188 1772.6043 242.1969 1745.6015 359.6265 1831.896 275.5339 1759.4668 371.824 1872.5051 330.1 1767.1748 388.6075 1887.4069 396.4677 1767.3867 407.0756 1874.025 463.1577 1760.0689 424.0319 1834.6793 518.6403" fill="#f7d321"/><g isolation="isolate"><path d="M353.3854,169.3383c22.7266-2.2954,35.124-22.4976,38.7969-28.9258l1.377,.689c-7.1162,12.856-20.6611,30.7622-47.9795,32.3691-31.6807,1.6069-63.3604-15.6108-64.2793-53.4893-1.1475-39.7158,34.8945-58.3105,60.1475-58.3105,13.085,0,31.4502,5.9688,43.3877,12.167l-3.4434,19.0542h-1.377c-5.5098-13.7739-27.3184-33.5171-48.8984-28.4663-28.2363,6.4277-38.5674,42.6997-28.9258,70.248,8.4941,24.1045,28.0078,36.9604,51.1943,34.6646Z" fill="#008e53"/></g><g isolation="isolate"><path d="M520.7359,170.4862v1.6069h-28.2373v-1.6069c3.4434-2.0664,4.5918-5.9688,3.9023-13.5444-.918-7.5757-4.1318-46.373-5.2793-58.3105-1.8369-17.2178-10.3311-36.731-30.0742-32.8281-25.7109,5.0503-30.3027,53.0303-30.3027,72.314v18.8247c0,8.0347,1.6074,11.478,5.0508,13.5444v1.6069h-28.4668v-1.6069c3.6729-2.0664,5.2803-5.5098,5.2803-13.5444V24.2509c0-8.0347-.6885-10.3306-5.2803-11.019v-1.8364l21.5791-4.8213h1.8369V118.6039c2.7549-25.7119,10.79-56.9331,40.6338-56.9331,18.5947,0,34.665,12.856,37.4199,40.4038,2.5254,22.2681,4.5908,46.373,5.5098,54.8672,.918,8.2642,2.9844,11.478,6.4277,13.5444Z" fill="#008e53"/></g><path d="M644.0094,135.5917c-1.377,16.2993-15.8398,37.8789-48.4385,37.8789-31.6807,0-62.2129-15.6108-63.1318-53.4893-1.1475-39.7158,34.8945-56.9331,60.1475-58.3105,19.5127-.9185,46.3721,8.4941,49.5869,36.272h-21.3506c13.0859,3.4434,25.0234,16.7583,23.1865,37.6489Zm-32.5986-37.6489h-59.458c-2.9844,12.167-2.2959,25.7114,1.6064,36.731,8.4941,24.1045,25.7119,34.6646,49.1279,33.7461,19.7432-.918,36.9609-14.4624,39.2559-32.3691,2.7549-23.875-13.085-38.1079-30.5322-38.1079Zm-58.999-1.8369h73.2324c-2.9844-19.9722-20.8906-36.042-43.3887-31.6802-15.6104,2.9844-25.7119,16.0698-29.8438,31.6802Z" fill="#008e53"/><path d="M732.6207,169.3383c22.7266-2.2954,35.124-22.4976,38.7969-28.9258l1.377,.689c-7.1162,12.856-20.6611,30.7622-47.9795,32.3691-31.6807,1.6069-63.3604-15.6108-64.2793-53.4893-1.1475-39.7158,34.8945-58.3105,60.1475-58.3105,13.085,0,31.4502,5.9688,43.3877,12.167l-3.4434,19.0542h-1.377c-5.5098-13.7739-27.3193-33.5171-48.8984-28.4663-28.2363,6.4277-38.5674,42.6997-28.9258,70.248,8.4941,24.1045,28.0078,36.9604,51.1943,34.6646Z" fill="#008e53"/><path d="M893.3131,170.4862v1.6069h-34.8936v-1.6069c5.2793-4.1323,2.7549-9.8716-4.1328-21.5796l-25.9414-42.2407-18.5947,16.2998v32.8281c0,8.0347,1.6074,12.626,5.2803,14.6924v1.6069h-28.4668v-1.6069c3.4434-2.0664,5.0508-6.6577,5.0508-14.6924V22.8734c0-8.0347-.6885-8.9531-5.0508-9.6416v-1.8364l21.5791-4.8213h1.6074V120.8993l24.334-21.3496c23.6455-21.1206,29.1553-30.0737,19.9727-36.0425v-1.8364h30.3027v1.8364c-12.626,5.0508-23.6455,14.4629-44.5361,32.8281l21.1201,33.7466c15.8408,25.7119,22.0391,35.5835,32.3691,40.4043Z" fill="#008e53"/><path d="M1077.1939,112.6352c0,36.731-31.4512,60.8354-62.2129,60.8354-30.9922,0-57.3926-18.8247-57.3926-50.9644,0-37.8789,31.4512-60.8354,62.2129-60.8354s57.3926,19.2837,57.3926,50.9644Zm-19.2842-7.3462c-8.0342-27.5483-29.6143-47.0615-55.7852-39.4858s-33.2871,36.2715-25.252,64.0493c8.0342,27.5483,29.6143,47.291,55.7852,39.4858,26.1709-7.5757,33.2871-36.272,25.252-64.0493Z" fill="#008e53"/><g isolation="isolate"><path d="M1200.2379,172.0932h-23.416v-55.7852c-2.9844,25.9414-10.79,57.1626-40.6338,57.1626-21.1201,0-37.8789-13.3149-37.8789-40.4043v-53.7188c0-8.0352-.6885-10.3306-5.0508-11.0195v-1.6069l21.5791-5.0503h1.6074v74.8394c0,19.9722,10.3311,36.5015,30.0732,32.8281,25.7119-5.0503,30.3037-53.0303,30.3037-72.314v-17.6768c0-8.0352-.6895-10.3306-5.0508-11.0195v-1.6069l21.5791-5.0503h1.6074v95.271c0,8.0347,1.6064,11.478,5.2803,13.5444v1.6069Z" fill="#008e53"/></g><g isolation="isolate"><path d="M1296.4234,131.9188c-4.3613,21.5791-14.0039,41.5518-38.1084,41.5518-20.4316,0-33.0576-13.3149-33.0576-40.4043V63.5072h-13.5449v-1.8364c19.5137,0,21.1211-20.4316,21.1211-31.4512h18.1357c0,17.6768-17.4473,30.7622-31.2217,31.4512h50.7344v1.8364h-27.0889v73.0029c0,19.9722,5.5098,35.3535,25.0234,32.8281,15.1514-2.0659,22.7266-20.2021,26.8594-37.8789l1.1475,.4595Z" fill="#008e53"/></g><g isolation="isolate"><path d="M1528.0543,170.4862v1.6069h-28.2363v-1.6069c3.4434-2.0664,4.5908-5.9688,3.9023-13.5444-.918-7.5757-4.1318-46.373-5.2803-58.3105-1.8359-17.2178-8.4941-36.731-26.4004-32.8281-21.1201,4.5913-23.875,40.1743-24.1045,64.2788v26.8599c0,8.0347,1.6074,11.478,5.0508,13.5444v1.6069h-28.2373v-1.6069c3.4434-2.0664,5.0508-5.5098,5.0508-13.5444v-58.3105c0-17.4473-8.0352-36.272-25.9414-32.8281-25.7119,4.8208-26.8594,52.8008-26.8594,72.314v18.8247c0,8.0347,1.8369,11.478,5.2803,13.5444v1.6069h-28.4668v-1.6069c3.4434-2.0664,5.2803-5.5098,5.2803-13.5444V79.3476c0-8.0352-.6885-10.3306-5.2803-11.0195v-1.6069l21.5791-5.0503h1.6074v50.9644c2.5254-24.3345,9.4121-50.9644,36.9609-50.9644,17.6768,0,32.8281,15.1514,33.7461,40.4038l.2295,2.5254c2.7549-22.2681,11.249-42.9292,34.4355-42.9292,18.1357,0,30.9912,13.5444,33.7461,40.4038,2.5254,22.2681,4.5918,46.373,5.5098,54.8672,.9189,8.2642,2.9844,11.478,6.4277,13.5444Z" fill="#008e53"/></g><g isolation="isolate"><path d="M1613.9068,105.9774s-18.3652,45.6841-26.6299,66.1157c-8.2646,20.6611-18.5957,37.8789-36.7314,37.8789-12.3965,0-21.3496-5.7393-27.0889-16.2993l17.9062-16.2993,1.3779,1.1475c-2.2959,12.856,.2295,30.5327,12.8555,29.1553,11.9375-1.3774,21.3496-16.5288,28.9258-33.5171l-29.3848-69.1001c-9.6416-22.4976-14.4629-32.3691-25.4824-41.5518v-1.8364h35.124v1.8364c-5.7393,6.1982-3.9023,12.397,1.3779,25.2524l27.3184,63.8203,18.8242-46.832c8.4941-21.1206,11.249-33.7466,.9189-42.2407v-1.8364h27.0889v1.8364c-9.8721,10.1011-17.9062,21.3501-26.4004,42.4702Z" fill="#008e53"/></g><g isolation="isolate"><path d="M733.7789,533.2016c32.7266-3.3057,50.5771-32.3955,55.8662-41.6514l1.9834,.9917c-10.248,18.5117-29.751,44.2959-69.0879,46.6099-45.6191,2.314-91.2363-22.4785-92.5586-77.022-1.6533-57.188,50.2461-83.9639,86.6074-83.9639,18.8428,0,45.2881,8.5947,62.4775,17.52l-4.958,27.437h-1.9844c-7.9336-19.834-39.3369-48.2627-70.4102-40.9902-40.6602,9.2559-55.5352,61.4854-41.6514,101.1533,12.2314,34.7095,40.3291,53.2212,73.7158,49.9155Z" fill="#008e53"/></g><g isolation="isolate"><path d="M958.8941,537.1684h-33.3867v-46.2793c-8.5957,29.0898-26.7764,48.2627-58.5107,48.2627-27.1064,0-53.5518-12.8921-57.8486-36.6929-5.6201-33.7178,14.5449-53.5518,39.998-64.1299-8.5947-19.1729,1.6523-60.1631,45.9492-60.1631,27.4365,0,56.5264,14.5449,56.5264,55.2046v81.9805c0,11.5698,2.3135,16.5283,7.2725,19.5034v2.314Zm-33.3867-52.2295v-50.9072c-1.6533-.6611-9.5869-2.9751-19.834-2.9751-36.0322,0-84.9561,17.8506-70.7422,76.0303,4.2979,17.8506,23.4707,28.7593,39.999,27.7676,28.7588-1.6528,43.9658-26.1147,50.5771-49.9155Zm-73.0557-47.9321c17.8506-6.6113,37.6846-8.9253,53.2217-8.9253,7.6025,0,14.2139,1.3223,19.834,2.9751v-2.314c0-25.123-9.918-47.271-33.3877-47.271-29.751,0-49.585,28.7593-39.668,55.5352Z" fill="#008e53"/><path d="M1095.4195,399.3222l-6.6113,30.4121h-1.6523c-10.248-28.0981-31.4043-48.5933-50.2461-48.5933-22.4785,0-35.04,12.5615-36.6934,26.1147-4.627,44.2959,106.7734,32.3955,103.1367,86.2778-1.9824,26.1147-26.4453,45.6182-63.4688,45.6182-26.7754,0-46.6094-8.9253-64.46-22.1479l6.9424-33.0566h1.6523c11.2393,23.1396,36.0312,50.5767,65.4521,50.5767,23.8008,0,41.6514-12.231,43.6348-26.4453,6.2803-43.3042-109.0869-24.1313-101.1533-88.9224,2.6445-21.4868,14.5449-40.9902,50.5762-40.9902,17.1895,0,39.668,10.9087,52.8906,21.1562Z" fill="#008e53"/></g><g isolation="isolate"><path d="M1287.8121,484.6083c-1.9824,23.4702-22.8086,54.5435-69.749,54.5435-45.6182,0-89.583-22.4785-90.9053-77.022-1.6533-57.188,50.2461-81.9805,86.6074-83.9639,28.0986-1.3223,66.7754,12.231,71.4023,52.2295h-30.7422c18.8418,4.9585,36.0312,24.1313,33.3867,54.2129Zm-46.9395-54.2129h-85.6172c-4.2969,17.52-3.3057,37.0234,2.3145,52.8906,12.2305,34.7095,37.0234,49.9155,70.7402,48.5933,28.4297-1.3223,53.2217-20.8257,56.5273-46.6099,3.9668-34.3789-18.8418-54.874-43.9648-54.874Zm-84.9561-2.6445h105.4502c-4.2969-28.7593-30.0811-51.8989-62.4766-45.6182-22.4785,4.2974-37.0234,23.1396-42.9736,45.6182Z" fill="#008e53"/></g><g isolation="isolate"><path d="M573.1246,720.7123l-6.6113,30.4116h-1.6533c-10.2471-28.0977-31.4033-48.5928-50.2461-48.5928-22.4785,0-35.04,12.5615-36.6924,26.1143-4.6289,44.2969,106.7725,32.3965,103.1367,86.2783-1.9844,26.1143-26.4453,45.6182-63.4688,45.6182-26.7764,0-46.6104-8.9258-64.4609-22.1484l6.9414-33.0566h1.6533c11.2393,23.1406,36.0322,50.5771,65.4521,50.5771,23.8008,0,41.6514-12.2314,43.6348-26.4453,6.2812-43.3037-109.0869-24.1318-101.1533-88.9229,2.6445-21.4863,14.5449-40.9897,50.5771-40.9897,17.1895,0,39.668,10.9087,52.8906,21.1562Z" fill="#008e53"/></g><g isolation="isolate"><path d="M719.898,800.7099c-6.2803,31.0723-20.1641,59.832-54.873,59.832-29.4209,0-47.6016-19.1729-47.6016-58.1797v-100.1616h-19.5039v-2.6445c28.0977,0,30.4121-29.4204,30.4121-45.2876h26.1152c0,25.4536-25.123,44.2959-44.957,45.2876h73.0547v2.6445h-39.0068v105.1206c0,28.7588,7.9336,50.9062,36.0322,47.2705,21.8164-2.9756,32.7256-29.0898,38.6758-54.5439l1.6523,.6621Z" fill="#008e53"/><path d="M880.5553,858.5585h-33.7178v-80.3271c-4.2969,37.3535-15.5371,82.3105-58.5098,82.3105-30.4121,0-54.5439-19.1729-54.5439-58.1797v-77.3525c0-11.5698-.9912-14.8755-7.2725-15.8672v-2.314l31.0732-7.2725h2.3135v107.7651c0,28.7588,14.876,52.5596,43.3047,47.2705,37.0234-7.2725,43.6348-76.3604,43.6348-104.1279v-25.4541c0-11.5698-.9922-14.8755-7.2725-15.8672v-2.314l31.0732-7.2725h2.3145v137.1851c0,11.5703,2.3135,16.5283,7.6025,19.5039v2.3135Z" fill="#008e53"/><path d="M1067.9879,858.5585h-33.3867v-88.5918c-6.2812,38.3457-23.1396,90.5752-69.4189,90.5752-26.7764,0-59.833-23.1396-61.1553-65.4521-1.9824-81.6499,74.0469-95.5337,110.7402-95.5337,7.6035,0,14.2148,1.3223,19.834,2.9751v-56.8574c0-11.5698-.9922-14.8755-7.6035-15.8672v-2.6445l31.4043-6.9419h2.3145v216.521c0,11.5703,2.3135,16.5283,7.2715,19.5039v2.3135Zm-33.3867-108.0947v-46.2798c-1.6523-.3306-9.2559-2.9751-19.834-2.9751-32.0645,.6611-89.584,14.5449-84.9551,98.8389,1.6523,28.7598,21.8164,59.833,50.2461,54.5439,37.0234-7.2725,54.543-76.3604,54.543-104.1279Z" fill="#008e53"/><path d="M1132.1178,856.245v2.3135h-40.9902v-2.3135c4.958-2.9756,7.2725-7.9336,7.2725-19.5039v-111.7314c0-11.5698-.9922-14.8755-7.2725-15.8672v-2.314l31.0732-7.2725h2.3145v137.1851c0,11.5703,2.3135,16.5283,7.6025,19.5039Zm-37.0234-199.0015c0-8.5947,6.9424-15.5366,15.5361-15.5366s15.5371,6.9419,15.5371,15.5366-6.9414,15.5366-15.5371,15.5366-15.5361-6.9419-15.5361-15.5366Z" fill="#008e53"/></g><g isolation="isolate"><path d="M1316.2398,805.9989c-1.9844,23.4697-22.8096,54.543-69.75,54.543-45.6182,0-89.584-22.4785-90.9062-77.0215-1.6523-57.1885,50.2461-81.981,86.6094-83.9644,28.0977-1.3223,66.7734,12.231,71.4023,52.23h-30.7432c18.8428,4.958,36.0322,24.1309,33.3877,54.2129Zm-46.9414-54.2129h-85.6162c-4.2979,17.5195-3.3057,37.0234,2.3135,52.8906,12.2314,34.709,37.0234,49.915,70.7422,48.5928,28.4277-1.3223,53.2207-20.8252,56.5264-46.6104,3.9668-34.3789-18.8428-54.873-43.9658-54.873Zm-84.9551-2.6445h105.4512c-4.2979-28.7598-30.082-51.8994-62.4775-45.6187-22.4785,4.2974-37.0234,23.1401-42.9736,45.6187Z" fill="#008e53"/></g><g isolation="isolate"><path d="M1456.4039,720.7123l-6.6113,30.4116h-1.6523c-10.248-28.0977-31.4043-48.5928-50.2461-48.5928-22.4785,0-35.04,12.5615-36.6934,26.1143-4.627,44.2969,106.7734,32.3965,103.1367,86.2783-1.9824,26.1143-26.4453,45.6182-63.4688,45.6182-26.7754,0-46.6094-8.9258-64.46-22.1484l6.9424-33.0566h1.6523c11.2393,23.1406,36.0312,50.5771,65.4521,50.5771,23.8008,0,41.6514-12.2314,43.6348-26.4453,6.2803-43.3037-109.0869-24.1318-101.1533-88.9229,2.6445-21.4863,14.5449-40.9897,50.5762-40.9897,17.1895,0,39.668,10.9087,52.8906,21.1562Z" fill="#008e53"/></g><line x1="961.2641" y1="1105.8049" x2="961.2641" y2="949.8319" fill="none" stroke="#008e53" stroke-miterlimit="10" stroke-width="9"/><path d="M961.4563,1109.9136c13.6187-25.9095,31.4585-49.3691,52.7869-69.4158h0" fill="none" stroke="#008e53" stroke-miterlimit="10" stroke-width="3"/><path d="M905.7568,1040.2058h0c21.1477,19.8088,38.8254,43.0223,52.2986,68.6755l2.0791,4.0231,3.1899-6.9373-5.0931-10.2667c-12.2544-22.5149-28.3332-42.8884-47.5681-60.2739h0l-4.9064,4.7792Z" fill="#008e53" stroke="#008e53" stroke-miterlimit="10" stroke-width="3"/></g><g id="l"><g id="m"/></g><g id="n"/><g id="o"/><g id="p"/><g id="q"/></svg>