<svg xmlns="http://www.w3.org/2000/svg" width="1153.44" height="605.5685" viewBox="0 0 1153.44 605.5685"><path d="M575.64,152.4365c152.2175,0,295.2615,23.4369,402.7827,65.9937,52.0262,20.592,92.8149,44.5167,121.2329,71.11,28.9457,27.0877,43.6234,55.71,43.6234,85.0726s-14.6776,57.9849-43.6241,85.0726c-28.4192,26.5928-69.2067,50.5175-121.2329,71.1095-107.52,42.5568-250.5646,65.9938-402.782,65.9938s-295.2615-23.437-402.7827-65.9938c-52.0263-20.592-92.8149-44.5167-121.2329-71.1095-28.9457-27.0877-43.6234-55.71-43.6234-85.0726S22.6786,316.6274,51.6252,289.54c28.4191-26.5928,69.2066-50.5175,121.2329-71.11,107.52-42.5568,250.5644-65.9938,402.7819-65.9938m0-4.1307c-315.78,0-571.77,101.3208-571.77,226.3066S259.8594,600.9184,575.64,600.9184s571.77-101.3208,571.77-226.3066S891.42,148.3057,575.64,148.3057Z" fill="#f7d321"/><path d="M41.0851,489.2174s34.5994-.4948,42-7.359c8.7488-8.1147,12.2052-53.8463,12.2052-53.8463s2.3949,47.3434,12.6989,53.7483c9.624,5.9826,39.8908,7.816,39.8908,7.816s-33.6223,5.31-41.1025,17.41c-6.1023,9.8716-10.7694,53.3078-10.7694,53.3078S92.8009,518.9968,84.88,506.9865C75.4057,492.6215,41.0851,489.2174,41.0851,489.2174Z" fill="#f7d321"/><polygon points="1100.26 311.099 1047.363 261.86 1065.164 331.9 1036.868 265.402 1024.641 336.629 1025.84 264.37 985.699 324.467 1016.183 258.942 955.07 297.518 1009.57 250.056 938.052 260.44 1007.145 239.249 937.585 219.644 1009.321 228.389 953.751 182.186 1015.732 219.352 983.756 154.543 1025.258 213.704 1022.408 141.492 1036.261 212.421 1063.028 145.292 1046.832 215.725 1098.591 165.287 1055.149 223.041 1122.947 198.015 1059.772 233.107 1131.885 237.822 1059.899 244.184 1123.859 277.821 1055.51 254.354 1100.26 311.099" fill="#f7d321"/><g style="isolation:isolate"><text transform="translate(162.9203 103.2452)" font-size="137.6896" fill="#008e53" font-family="NewYork" style="isolation:isolate">c</text><text transform="translate(238.6478 103.2452)" font-size="137.6896" fill="#008e53" font-family="NewYork" letter-spacing="-0.01em" style="isolation:isolate">h</text><text transform="translate(313.5497 103.2452)" font-size="137.6896" fill="#008e53" font-family="NewYork" style="isolation:isolate">eck o</text><text transform="translate(650.0585 103.2452)" font-size="137.6896" fill="#008e53" font-family="NewYork" letter-spacing="-0.01em" style="isolation:isolate">u</text><text transform="translate(722.4833 103.2452)" font-size="137.6896" fill="#008e53" font-family="NewYork" style="isolation:isolate">t </text><text transform="translate(806.3351 103.2452)" font-size="137.6896" fill="#008e53" font-family="NewYork" letter-spacing="-0.04em" style="isolation:isolate">m</text><text transform="translate(913.5936 103.2452)" font-size="137.6896" fill="#008e53" font-family="NewYork" style="isolation:isolate">y</text></g><g style="isolation:isolate"><text transform="translate(369.5702 322.212)" font-size="198.273" fill="#008e53" font-family="NewYork" style="isolation:isolate">c</text><text transform="translate(478.618 322.212)" font-size="198.273" fill="#008e53" font-family="NewYork" letter-spacing="-0.02em" style="isolation:isolate">a<tspan x="98.3428" y="0" letter-spacing="-0.01em">s</tspan></text><text transform="translate(667.7694 322.212)" font-size="198.273" fill="#008e53" font-family="NewYork" style="isolation:isolate">e </text><text transform="translate(263.6947 514.9772)" font-size="198.273" fill="#008e53" font-family="NewYork" letter-spacing="-0.01em" style="isolation:isolate">s</text><text transform="translate(352.5209 514.9772)" font-size="198.273" fill="#008e53" font-family="NewYork" style="isolation:isolate">tudi</text><text transform="translate(684.8192 514.9772)" font-size="198.273" fill="#008e53" font-family="NewYork" letter-spacing="-0.01em" style="isolation:isolate">e</text><text transform="translate(793.4735 514.9772)" font-size="198.273" fill="#008e53" font-family="NewYork" style="isolation:isolate">s</text></g></svg>