<svg xmlns="http://www.w3.org/2000/svg" width="1920" height="1080" viewBox="0 0 1920 1080"><path d="M960,304.7028c253.7866,0,492.2784,39.0757,671.5445,110.029,86.7414,34.3323,154.7469,74.221,202.1271,118.559,48.26,45.1624,72.7317,92.8832,72.7317,141.8384s-24.4714,96.676-72.7329,141.8384c-47.3823,44.3371-115.3857,84.2259-202.1271,118.5582C1452.279,1006.4792,1213.7863,1045.5547,960,1045.5547s-492.2785-39.0756-671.5445-110.0289c-86.7415-34.3323-154.7468-74.2211-202.1271-118.5582-48.26-45.1624-72.7317-92.8832-72.7317-141.8384S38.0682,578.4523,86.33,533.29c47.3821-44.3372,115.3856-84.2259,202.1271-118.559C467.7209,343.7776,706.2135,304.702,960,304.702m0-6.887c-526.4882,0-953.2907,168.9284-953.2907,377.3125S433.5108,1052.44,960,1052.44s953.2907-168.9284,953.2907-377.3125S1486.4885,297.8159,960,297.8159Z" fill="#f7d321"/><path d="M68.7566,866.205s57.6864-.8249,70.025-12.2693c14.5866-13.5293,20.3493-89.7759,20.3493-89.7759s3.9929,78.9338,21.1725,89.6125c16.0456,9.9746,66.5084,13.0313,66.5084,13.0313s-56.0572,8.8526-68.5287,29.0273c-10.1741,16.4585-17.9554,88.8781-17.9554,88.8781s-5.3472-68.8539-18.5536-88.8781C125.9781,871.8807,68.7566,866.205,68.7566,866.205Z" fill="#f7d321"/><polygon points="1834.679 569.235 1746.487 487.141 1776.165 603.916 1728.988 493.046 1708.603 611.8 1710.601 491.326 1643.677 591.523 1694.501 482.276 1592.61 546.592 1683.476 467.46 1564.236 484.774 1679.431 449.442 1563.458 416.756 1683.061 431.336 1590.411 354.303 1693.749 416.269 1640.436 308.214 1709.632 406.852 1704.88 286.456 1727.977 404.713 1772.604 292.791 1745.602 410.221 1831.896 326.128 1759.467 422.419 1872.505 380.695 1767.175 439.202 1887.407 447.062 1767.387 457.67 1874.025 513.752 1760.069 474.627 1834.679 569.235" fill="#f7d321"/><g style="isolation:isolate"><text transform="translate(271.8883 222.6878)" font-size="229.5647" fill="#008e53" font-family="NewYork" style="isolation:isolate">c</text><text transform="translate(398.1461 222.6878)" font-size="229.5647" fill="#008e53" font-family="NewYork" letter-spacing="-0.01em" style="isolation:isolate">h</text><g style="isolation:isolate"><path d="M644.0094,186.1863c-1.377,16.2993-15.84,37.8789-48.4385,37.8789-31.6807,0-62.2129-15.6108-63.1318-53.4893-1.1475-39.7158,34.8945-56.9331,60.1474-58.31,19.5127-.9185,46.3721,8.4941,49.5869,36.272H620.8229C633.9088,151.9807,645.8463,165.2957,644.0094,186.1863Zm-32.5987-37.6489h-59.458a66.2971,66.2971,0,0,0,1.6065,36.7309c8.4941,24.1045,25.7119,34.6646,49.1279,33.7461,19.7432-.918,36.9609-14.4624,39.2559-32.3691C644.6979,162.77,628.858,148.5374,611.4107,148.5374Zm-58.999-1.837h73.2324c-2.9843-19.9721-20.8906-36.0419-43.3886-31.68C566.6451,118.0046,556.5436,131.09,552.4117,146.7Z" fill="#008e53"/><path d="M732.6207,219.9329c22.7266-2.2954,35.124-22.4976,38.7969-28.9258l1.3769.689c-7.1162,12.8559-20.6611,30.7622-47.9795,32.3691-31.6806,1.6069-63.36-15.6108-64.2793-53.4893-1.1474-39.7158,34.8946-58.31,60.1475-58.31,13.085,0,31.45,5.9687,43.3877,12.167l-3.4434,19.0542h-1.3769c-5.51-13.7739-27.3194-33.5171-48.8985-28.4663-28.2363,6.4277-38.5673,42.7-28.9257,70.248C689.9205,209.3728,709.4342,222.2288,732.6207,219.9329Z" fill="#008e53"/><path d="M893.3131,221.0808v1.607H858.42v-1.607c5.2793-4.1323,2.7549-9.8716-4.1328-21.58l-25.9414-42.2407-18.5947,16.3v32.8281c0,8.0347,1.6074,12.626,5.28,14.6924v1.607H786.5641v-1.607c3.4433-2.0664,5.0507-6.6577,5.0507-14.6924V73.468c0-8.0346-.6884-8.9531-5.0507-9.6416V61.99l21.5791-4.8213h1.6074V171.4939l24.334-21.35c23.6455-21.1206,29.1552-30.0737,19.9726-36.0425v-1.8364H884.36v1.8364c-12.626,5.0508-23.6455,14.4629-44.5362,32.8281l21.12,33.7466C876.7848,206.3884,882.983,216.26,893.3131,221.0808Z" fill="#008e53"/><path d="M1077.1939,163.23c0,36.731-31.4511,60.8355-62.2128,60.8355-30.9922,0-57.3926-18.8247-57.3926-50.9644,0-37.8789,31.4511-60.8354,62.2129-60.8354S1077.1939,131.5491,1077.1939,163.23Zm-19.2841-7.3461c-8.0342-27.5484-29.6143-47.0616-55.7852-39.4859s-33.2871,36.2715-25.2519,64.0493c8.0341,27.5484,29.6142,47.291,55.7851,39.4859C1058.8287,212.3572,1065.9449,183.6609,1057.91,155.8836Z" fill="#008e53"/></g><text transform="translate(1084.0758 222.6878)" font-size="229.5647" fill="#008e53" font-family="NewYork" letter-spacing="-0.01em" style="isolation:isolate">u</text><text transform="translate(1204.8258 222.6878)" font-size="229.5647" fill="#008e53" font-family="NewYork" style="isolation:isolate">t </text><text transform="translate(1344.6295 222.6878)" font-size="229.5647" fill="#008e53" font-family="NewYork" letter-spacing="-0.04em" style="isolation:isolate">m</text><text transform="translate(1523.4566 222.6878)" font-size="229.5647" fill="#008e53" font-family="NewYork" style="isolation:isolate">y</text></g><g style="isolation:isolate"><text transform="translate(616.4283 587.7629)" font-size="330.5731" fill="#008e53" font-family="NewYork" style="isolation:isolate">c</text><text transform="translate(798.2389 587.7629)" font-size="330.5731" fill="#008e53" font-family="NewYork" letter-spacing="-0.02em" style="isolation:isolate">a<tspan x="163.9629" y="0" letter-spacing="-0.01em">s</tspan></text><text transform="translate(1113.6041 587.7629)" font-size="330.5731" fill="#008e53" font-family="NewYork" style="isolation:isolate">e </text><text transform="translate(439.9059 909.1531)" font-size="330.5731" fill="#008e53" font-family="NewYork" letter-spacing="-0.01em" style="isolation:isolate">s</text><text transform="translate(588.0025 909.1531)" font-size="330.5731" fill="#008e53" font-family="NewYork" style="isolation:isolate">tudi</text><text transform="translate(1142.0309 909.1531)" font-size="330.5731" fill="#008e53" font-family="NewYork" letter-spacing="-0.01em" style="isolation:isolate">e</text><text transform="translate(1323.1861 909.1531)" font-size="330.5731" fill="#008e53" font-family="NewYork" style="isolation:isolate">s</text></g></svg>