<?xml version="1.0" encoding="utf-8"?>
<!-- Generator: Adobe Illustrator 25.3.1, SVG Export Plug-In . SVG Version: 6.00 Build 0)  -->
<svg version="1.1" id="Layer_1" xmlns="http://www.w3.org/2000/svg" xmlns:xlink="http://www.w3.org/1999/xlink" x="0px" y="0px"
	 viewBox="0 0 1147.8 602.9" style="enable-background:new 0 0 1147.8 602.9;" xml:space="preserve">
<style type="text/css">
	.st0{fill:#F7D321;}
	.st1{fill:none;}
	.st2{fill:#008E53;}
	.st3{font-family:'NewYork';}
	.st4{font-size:137.6896px;}
	.st5{font-size:198.273px;}
</style>
<path class="st0" d="M573.9,152.1c152.2,0,295.3,23.4,402.8,66c52,20.6,92.8,44.5,121.2,71.1c28.9,27.1,43.6,55.7,43.6,85.1
	s-14.7,58-43.6,85.1c-28.4,26.6-69.2,50.5-121.2,71.1c-107.5,42.6-250.6,66-402.8,66s-295.3-23.4-402.8-66
	c-52-20.6-92.8-44.5-121.2-71.1C21,432.3,6.3,403.6,6.3,374.3c0-29.4,14.7-58,43.6-85.1c28.4-26.6,69.2-50.5,121.2-71.1
	C278.7,175.5,421.7,152.1,573.9,152.1 M573.9,148C258.1,148,2.2,249.3,2.2,374.3s256,226.3,571.8,226.3s571.8-101.3,571.8-226.3
	S889.7,148,573.9,148z"/>
<path class="st0" d="M11.8,462.5c0,0,47.8-0.7,58-10.2C81.9,441.1,86.7,378,86.7,378s3.3,65.4,17.5,74.3
	c13.3,8.3,55.1,10.8,55.1,10.8s-46.4,7.3-56.8,24.1c-8.4,13.6-14.9,73.6-14.9,73.6s-4.4-57.1-15.4-73.6
	C59.2,467.2,11.8,462.5,11.8,462.5z"/>
<polygon class="st0" points="1100.1,308.8 1059.6,264.8 1069.8,323.7 1050.7,267 1036,325 1041.7,265.5 1004.7,312.5 1034.1,260.4 
	981.2,288.2 1029.2,252.6 969.5,256.6 1027.9,243.5 971.8,222.9 1030.4,234.7 987.5,193 1036.3,227.7 1014.1,172.1 1044.5,223.6 
	1046.8,163.9 1053.7,223.3 1080.1,169.6 1062.2,226.7 1108.1,188.4 1068.6,233.3 1126.1,217 1071.7,241.9 1130.9,250.4 1071.1,251 
	1121.7,282.9 1066.8,259.1 "/>
<rect x="52.8" y="3.6" class="st1" width="1039" height="136"/>
<text transform="matrix(1 0 0 1 157.0747 102.9115)" class="st2 st3 st4">check out my</text>
<rect x="175.6" y="178.9" class="st1" width="793.4" height="413.7"/>
<text transform="matrix(1 0 0 1 365.8725 321.8783)"><tspan x="0" y="0" class="st2 st3 st5">case </tspan><tspan x="-105.9" y="192.8" class="st2 st3 st5">studies</tspan></text>
</svg>
