<svg xmlns="http://www.w3.org/2000/svg" width="204.84" height="85.9262" viewBox="0 0 204.84 85.9262"><path d="M102.42,4.5184c27.2664,0,52.89,4.0476,72.15,11.3974,9.3194,3.5563,16.6258,7.6882,21.7162,12.281,5.185,4.6781,7.8142,9.6213,7.8142,14.6924s-2.6292,10.0142-7.8143,14.6924c-5.0907,4.5927-12.3968,8.7246-21.7162,12.2809C155.31,77.2123,129.6864,81.26,102.42,81.26S49.53,77.2122,30.27,69.8625C20.951,66.3062,13.6446,62.1743,8.5541,57.5816,3.3691,52.9034.74,47.96.74,42.8892S3.3691,32.8749,8.5543,28.1967c5.0907-4.5927,12.3968-8.7246,21.7162-12.281,19.26-7.35,44.8831-11.3974,72.15-11.3974m0-.7134C45.855,3.8049,0,21.3034,0,42.889S45.8549,81.9731,102.42,81.9731,204.84,64.4746,204.84,42.889,158.9851,3.805,102.42,3.805Z" fill="#f7d321"/><path d="M3.2762,61.865s6.9625-.0995,8.4517-1.4808c1.7605-1.633,2.4561-10.8356,2.4561-10.8356s.4819,9.527,2.5554,10.8158c1.9366,1.2039,8.0273,1.5729,8.0273,1.5729s-6.7659,1.0684-8.2712,3.5034c-1.2279,1.9865-2.1671,10.7272-2.1671,10.7272s-.6454-8.31-2.2393-10.7272C10.1826,62.55,3.2762,61.865,3.2762,61.865Z" fill="#f7d321"/><polygon points="196.597 32.966 185.293 23.817 189.841 37.63 183.235 24.674 181.772 39.143 181.007 24.62 173.785 37.243 178.993 23.665 167.261 32.259 177.542 21.973 163.329 25.052 176.905 19.837 162.668 16.869 177.191 17.627 165.392 9.124 178.352 15.723 171.031 3.158 180.186 14.457 178.609 0 182.377 14.046 186.816 0.198 184.545 14.562 194.234 3.717 186.316 15.915 199.578 9.948 187.384 17.872 201.926 17.815 187.564 20.094 200.872 25.957 186.824 22.197 196.597 32.966" fill="#f7d321"/></svg>