<svg xmlns="http://www.w3.org/2000/svg" width="2534.4" height="466.56" viewBox="0 0 2534.4 466.56"><path d="M193.3007,157.8566l-30.5,43-3.5-2c-1-28.5-15-65.5-42-61.5-49,7.5-55.5,136.5-55.5,179v19.5c0,17.5,3.5,25,11,29.5v3.5h-62v-3.5c8-4.5,11.5-12,11.5-29.5v-169c0-17.5-1.5-22.5-11.5-24v-3.5l47-11h4v134c5-60.5,19-134,72-134C160.8007,128.3566,176.3007,137.8566,193.3007,157.8566Z" fill="#008e53"/><path d="M463.8055,239.3566c0,80-68.5,132.5-135.5,132.5-67.5,0-125-41-125-111,0-82.5,68.5-132.5,135.5-132.5S463.8055,170.3566,463.8055,239.3566Zm-42-16c-17.5-60-64.5-102.5-121.5-86s-72.5,79-55,139.5c17.5,60,64.5,103,121.5,86C423.8055,346.3566,439.3055,283.8566,421.8055,223.3566Z" fill="#008e53"/><path d="M746.8,226.8566c3.5,124-111.5,145-167.5,145-26,0-45.5-11-55.5-10.5-7,.5-9.5,7-10.5,10.5h-3v-325c0-17.5-1.5-22.5-11.5-24v-4l47.5-10.5h3.5v257c9-58,34.5-137,104.5-137C695.3,128.3566,745.3,163.3566,746.8,226.8566Zm-38.5-7c-2.5-43.5-33.5-91-76-82.5-56.5,11-82.5,115.5-82.5,157.5v69.5c2.5,1,14,5,30,4.5C627.8,368.3566,715.3,347.3566,708.3,219.8566Z" fill="#008e53"/><path d="M939.2958,224.8566s-40,99.5-58,144c-18,45-40.5,82.5-80,82.5-27,0-46.5-12.5-59-35.5l39-35.5,3,2.5c-5,28,.5,66.5,28,63.5,26-3,46.5-36,63-73l-64-150.5c-21-49-31.5-70.5-55.5-90.5v-4h76.5v4c-12.5,13.5-8.5,27,3,55l59.5,139,41-102c18.5-46,24.5-73.5,2-92v-4h59v4C975.2958,154.3566,957.7958,178.8566,939.2958,224.8566Z" fill="#008e53"/><path d="M1268.7948,365.3566v3.5h-62v-3.5c8-4.5,10-13,8.5-29.5s-9-101-11.5-127c-3.5-37.5-22-80-65-71.5-56,11-66.5,115.5-66.5,157.5v41c0,17.5,3.5,25,11.5,29.5v3.5h-62v-3.5c7.5-4.5,11-12,11-29.5v-169c0-17.5-1.5-22.5-11-24v-3.5l47-11h3.5v124c6.5-56,23.5-124,88.5-124,41,0,76,28,82,88,5,48.5,10,101,12,119.5C1256.7948,353.8566,1261.2948,360.8566,1268.7948,365.3566Z" fill="#008e53"/><path d="M1662.286,368.8566h-50.5v-134c-9.5,58-35,137-105,137-40.5,0-90.5-35-92.5-99-3-123.5,112-144.5,167.5-144.5a105.2647,105.2647,0,0,1,30,4.5v-86c0-17.5-1.5-22.5-11.5-24v-4l47.5-10.5h3.5v327.5c0,17.5,3.5,25,11,29.5Zm-50.5-163.5v-70c-2.5-.5-14-4.5-30-4.5-48.5,1-135.5,22-128.5,149.5,2.5,43.5,33,90.5,76,82.5C1585.286,351.8566,1611.786,247.3566,1611.786,205.3566Z" fill="#008e53"/><path d="M1920.2792,368.8566h-50.5v-70c-13,44-40.5,73-88.5,73-41,0-81-19.5-87.5-55.5-8.5-51,22-81,60.5-97-13-29,2.5-91,69.5-91,41.5,0,85.5,22,85.5,83.5v124c0,17.5,3.5,25,11,29.5Zm-50.5-79v-77c-2.5-1-14.5-4.5-30-4.5-54.5,0-128.5,27-107,115,6.5,27,35.5,43.5,60.5,42C1836.7792,362.8566,1859.7792,325.8566,1869.7792,289.8566Zm-110.5-72.5c27-10,57-13.5,80.5-13.5a105.2647,105.2647,0,0,1,30,4.5v-3.5c0-38-15-71.5-50.5-71.5C1774.2792,133.3566,1744.2792,176.8566,1759.2792,217.3566Z" fill="#008e53"/><path d="M2202.2743,365.3566v3.5h-62v-3.5c8-4.5,10-13,8.5-29.5s-9-101-11.5-127c-3.5-37.5-22-80-65-71.5-56,11-66.5,115.5-66.5,157.5v41c0,17.5,3.5,25,11.5,29.5v3.5h-62v-3.5c7.5-4.5,11-12,11-29.5v-169c0-17.5-1.5-22.5-11-24v-3.5l47-11h3.5v124c6.5-56,23.5-124,88.5-124,41,0,76,28,82,88,5,48.5,10,101,12,119.5C2190.2743,353.8566,2194.7743,360.8566,2202.2743,365.3566Z" fill="#008e53"/><path d="M2527.77,393.8566c0,39.5-50,65-92.5,65-36,0-53.5-19.5-65.5-36-23,14-48,27-71.5,28.5-26.5,2-46.5-7.5-47-30.5-1-30.5,47-47,82-50.5-58.5-7-106-46-106-109.5,0-82.5,69-132.5,136-132.5a147.12,147.12,0,0,1,56,11l85.5-25,3,25-80.5,3.5c36,17.5,61,51,61,96.5,0,80-68.5,132.5-136,132.5a18.7567,18.7567,0,0,1-5-.5c-33,1.5-71.5,13-69,43,1,16.5,9.5,28.5,28,28.5,25.5.5,54.5-19,86.5-38.5,37-22,68-48,93.5-49C2516.27,354.8566,2527.77,371.8566,2527.77,393.8566Zm-136.5-31c56.5-16.5,72.5-79,55-139.5-17.5-60-64.5-102.5-121.5-86s-72.5,79-55,139.5C2287.27,336.8566,2334.27,379.8566,2391.27,362.8566Zm81,2.5c-15.5,2-47.5,23.5-76.5,41.5l-22.5,13.5c9.5,14,25,34.5,62,35,38.5.5,60-20,62-53C2498.27,379.3566,2492.27,362.3566,2472.27,365.3566Z" fill="#008e53"/><path d="M2284.1856,245.0123s44.2085-.6322,53.6644-9.4027c11.1786-10.3683,15.5948-68.8007,15.5948-68.8007s3.06,60.4918,16.2258,68.6755c12.2967,7.6441,50.9694,9.9867,50.9694,9.9867s-42.96,6.7842-52.5177,22.2453c-7.797,12.6132-13.76,68.1127-13.76,68.1127s-4.0978-52.7669-14.2187-68.1127C2328.0379,249.3619,2284.1856,245.0123,2284.1856,245.0123Z" fill="#f7d321"/><polygon points="391.349 313.453 344.508 269.851 360.271 331.873 335.214 272.988 324.387 336.061 325.448 272.074 289.903 325.291 316.897 267.267 262.78 301.427 311.041 259.398 247.71 268.594 308.893 249.828 247.297 232.468 310.821 240.212 261.612 199.298 316.498 232.209 288.182 174.819 324.933 227.208 322.41 163.262 334.677 226.072 358.38 166.627 344.038 228.997 389.871 184.334 351.402 235.476 411.439 213.315 355.496 244.39 419.354 248.564 355.608 254.199 412.247 283.985 351.722 263.204 391.349 313.453" fill="#f7d321"/></svg>