<svg xmlns="http://www.w3.org/2000/svg" width="196.8" height="195.36" viewBox="0 0 196.8 195.36"><polygon points="163.385 169.538 110.488 120.3 128.289 190.339 99.992 123.842 87.766 195.068 88.964 122.81 48.824 182.907 79.308 117.382 18.195 155.958 72.695 108.495 1.176 118.88 70.269 97.688 0.71 78.084 72.446 86.828 16.876 40.625 78.857 77.792 46.88 12.982 88.383 72.143 85.533 -0.068 99.386 70.861 126.153 3.732 109.957 74.164 161.715 23.727 118.273 81.48 186.072 56.455 122.896 91.547 195.01 96.261 123.024 102.623 186.984 136.261 118.634 112.794 163.385 169.538" fill="#f7d321"/></svg>