<svg width="338" height="197" viewBox="0 0 338 197" fill="none" xmlns="http://www.w3.org/2000/svg">
<path d="M110.706 51.9404C109.98 51.8243 109.395 51.9335 108.953 52.268C108.526 52.6049 108.251 53.1605 108.128 53.9347L107.893 55.4041L111.732 56.0172L111.505 57.4392L107.713 56.8336L105.949 67.8776L104.267 67.6089L106.504 53.6024C106.685 52.4648 107.153 51.616 107.907 51.0558C108.676 50.4982 109.662 50.3153 110.862 50.5071C111.336 50.5828 111.783 50.7271 112.203 50.9399C112.625 51.137 112.966 51.3859 113.226 51.6866L112.457 52.8518C112.032 52.3628 111.449 52.059 110.706 51.9404ZM115.903 56.6834L117.586 56.9521L115.595 69.4182L113.912 69.1494L115.903 56.6834ZM117.192 54.0942C116.844 54.0387 116.571 53.8735 116.372 53.5987C116.173 53.3238 116.099 53.0205 116.152 52.6887C116.203 52.3727 116.366 52.1151 116.64 51.916C116.915 51.7168 117.227 51.645 117.574 51.7005C117.922 51.7561 118.195 51.9212 118.394 52.1961C118.596 52.4551 118.672 52.7427 118.621 53.0587C118.566 53.4062 118.4 53.6796 118.125 53.8788C117.851 54.0779 117.539 54.1497 117.192 54.0942ZM128.64 58.6204C130.204 58.8702 131.371 59.5265 132.141 60.5892C132.93 61.6387 133.185 63.0324 132.908 64.7704L131.753 71.9987L130.07 71.73L131.198 64.6675C131.405 63.3719 131.239 62.3327 130.7 61.5499C130.161 60.767 129.29 60.2797 128.09 60.0879C126.747 59.8734 125.616 60.106 124.697 60.7856C123.797 61.452 123.234 62.4882 123.01 63.8944L121.965 70.4355L120.282 70.1668L122.273 57.7008L123.885 57.9581L123.518 60.257C124.097 59.5718 124.822 59.0881 125.694 58.806C126.584 58.5107 127.566 58.4488 128.64 58.6204ZM150.552 56.9674L147.743 74.5526L146.132 74.2952L146.526 71.8304C145.886 72.5871 145.113 73.1197 144.204 73.4284C143.312 73.7395 142.345 73.8119 141.302 73.6453C140.133 73.4586 139.117 73.0209 138.255 72.3323C137.393 71.6437 136.77 70.7746 136.387 69.7251C136.003 68.6755 135.91 67.5345 136.107 66.3021C136.304 65.0697 136.748 64.0146 137.439 63.1366C138.13 62.2586 138.991 61.6346 140.023 61.2646C141.056 60.8788 142.158 60.7793 143.327 60.966C144.338 61.1275 145.213 61.4859 145.95 62.0412C146.706 62.5832 147.281 63.2987 147.673 64.1878L148.869 56.6987L150.552 56.9674ZM141.683 72.1749C142.552 72.3137 143.365 72.2411 144.123 71.9572C144.9 71.6599 145.545 71.1716 146.059 70.4921C146.588 69.8151 146.929 69.0026 147.08 68.0546C147.231 67.1066 147.161 66.2285 146.869 65.4203C146.592 64.6147 146.13 63.9575 145.482 63.449C144.853 62.9272 144.103 62.5969 143.234 62.4581C142.35 62.3168 141.519 62.3947 140.742 62.692C139.984 62.976 139.34 63.4564 138.811 64.1334C138.297 64.8129 137.965 65.6267 137.813 66.5746C137.662 67.5226 137.725 68.3995 138.001 69.2051C138.293 70.0133 138.754 70.6783 139.384 71.2002C140.031 71.7087 140.798 72.0336 141.683 72.1749ZM154.421 62.835L156.103 63.1037L154.112 75.5697L152.43 75.301L154.421 62.835ZM155.709 60.2458C155.362 60.1903 155.088 60.0251 154.889 59.7503C154.69 59.4754 154.617 59.1721 154.67 58.8403C154.72 58.5243 154.883 58.2667 155.158 58.0676C155.433 57.8684 155.744 57.7966 156.091 57.8521C156.439 57.9076 156.712 58.0728 156.912 58.3477C157.113 58.6067 157.189 58.8942 157.138 59.2102C157.083 59.5578 156.918 59.8312 156.643 60.0303C156.368 60.2295 156.057 60.3013 155.709 60.2458ZM167.152 64.7711C168.716 65.0209 169.883 65.6772 170.653 66.7399C171.442 67.7894 171.697 69.1831 171.419 70.9211L170.265 78.1495L168.582 77.8807L169.71 70.8182C169.917 69.5227 169.751 68.4834 169.212 67.7006C168.672 66.9177 167.802 66.4304 166.602 66.2387C165.259 66.0242 164.128 66.2567 163.209 66.9364C162.309 67.6027 161.746 68.639 161.522 70.0451L160.477 76.5862L158.794 76.3175L160.785 63.8515L162.397 64.1089L162.03 66.4077C162.609 65.7225 163.334 65.2389 164.206 64.9568C165.096 64.6614 166.078 64.5995 167.152 64.7711ZM188.412 68.2638L186.664 79.213C186.325 81.3302 185.554 82.8111 184.35 83.6557C183.159 84.5187 181.521 84.7836 179.435 84.4505C178.282 84.2663 177.211 83.9172 176.224 83.403C175.25 82.9072 174.487 82.3074 173.935 81.6035L174.993 80.46C175.507 81.0931 176.167 81.6279 176.973 82.0643C177.794 82.5033 178.678 82.7985 179.626 82.9499C181.206 83.2022 182.427 83.0164 183.288 82.3924C184.147 81.7842 184.7 80.7059 184.947 79.1576L185.2 77.5697C184.553 78.2764 183.77 78.767 182.851 79.0416C181.948 79.3186 180.983 79.3751 179.956 79.2111C178.787 79.0244 177.761 78.6013 176.878 77.9417C176.013 77.269 175.377 76.4302 174.971 75.4255C174.582 74.4075 174.481 73.3139 174.668 72.1448C174.855 70.9756 175.29 69.9757 175.974 69.1451C176.673 68.317 177.537 67.7259 178.566 67.3717C179.594 67.0175 180.701 66.935 181.886 67.1243C182.945 67.2934 183.867 67.6593 184.652 68.2222C185.437 68.785 186.026 69.511 186.418 70.4001L186.801 68.0064L188.412 68.2638ZM180.36 77.7445C181.261 77.8884 182.105 77.8287 182.892 77.5656C183.682 77.2867 184.33 76.8312 184.836 76.1991C185.358 75.5695 185.689 74.8123 185.831 73.9275C185.972 73.0427 185.892 72.2278 185.589 71.4828C185.305 70.7246 184.83 70.0978 184.164 69.6025C183.516 69.094 182.734 68.7665 181.818 68.6202C180.917 68.4763 180.073 68.536 179.286 68.7991C178.514 69.0647 177.867 69.5124 177.346 70.1419C176.84 70.774 176.516 71.5325 176.375 72.4173C176.233 73.3021 176.305 74.1236 176.589 74.8819C176.888 75.6427 177.362 76.2773 178.01 76.7859C178.676 77.2812 179.46 77.6007 180.36 77.7445ZM203.589 82.6939C203.227 82.9278 202.805 83.0872 202.322 83.172C201.841 83.241 201.347 83.2351 200.842 83.1544C199.673 82.9677 198.822 82.5078 198.291 81.7749C197.76 81.042 197.587 80.0988 197.771 78.9454L199.637 67.2615L201.32 67.5303L200.885 70.2557L204.653 70.8575L204.426 72.2795L200.657 71.6777L199.469 79.1194C199.35 79.862 199.441 80.4598 199.742 80.9128C200.044 81.3501 200.543 81.6242 201.239 81.7352C201.997 81.8563 202.647 81.7414 203.189 81.3906L203.589 82.6939ZM214.875 72.393C216.439 72.6428 217.607 73.299 218.377 74.3618C219.165 75.4113 219.42 76.805 219.143 78.543L217.988 85.7713L216.306 85.5026L217.434 78.4401C217.64 77.1445 217.474 76.1053 216.935 75.3225C216.396 74.5396 215.526 74.0523 214.325 73.8605C212.982 73.646 211.851 73.8786 210.932 74.5582C210.032 75.2246 209.47 76.2608 209.245 77.667L208.2 84.2081L206.518 83.9394L209.326 66.3542L211.009 66.623L209.843 73.9225C210.417 73.2689 211.139 72.8089 212.008 72.5426C212.877 72.2763 213.832 72.2264 214.875 72.393ZM228.155 85.9854C228.929 86.109 229.661 86.0883 230.352 85.9232C231.061 85.7447 231.688 85.4235 232.232 84.9595L233.006 86.2011C232.347 86.7764 231.579 87.1722 230.701 87.3886C229.824 87.605 228.888 87.6337 227.893 87.4747C226.613 87.2703 225.518 86.82 224.609 86.1239C223.702 85.4119 223.048 84.5299 222.649 83.4777C222.25 82.4256 222.148 81.2913 222.342 80.0747C222.537 78.8581 222.971 77.8096 223.647 76.9291C224.338 76.0511 225.192 75.4179 226.21 75.0296C227.228 74.6413 228.33 74.5418 229.515 74.731C230.621 74.9077 231.576 75.3194 232.38 75.9663C233.2 76.6158 233.798 77.4324 234.176 78.4163C234.569 79.4026 234.69 80.475 234.537 81.6335L223.981 81.9891C224.135 83.0508 224.577 83.9395 225.305 84.6553C226.051 85.3578 227.001 85.8012 228.155 85.9854ZM229.284 76.1767C228.415 76.0379 227.6 76.1184 226.839 76.4182C226.097 76.7047 225.47 77.1798 224.959 77.8435C224.466 78.4939 224.145 79.2852 223.996 80.2174C223.959 80.4544 223.939 80.6294 223.937 80.7426L233.002 80.4405C232.979 79.3674 232.633 78.4372 231.965 77.65C231.299 76.847 230.406 76.3559 229.284 76.1767ZM69.9206 78.6098C71.4848 78.8596 72.6519 79.5159 73.4219 80.5787C74.2103 81.6281 74.4656 83.0218 74.1881 84.7598L73.0336 91.9882L71.351 91.7195L72.4789 84.657C72.6858 83.3614 72.5196 82.3222 71.9803 81.5393C71.4411 80.7565 70.571 80.2692 69.3702 80.0774C68.0273 79.8629 66.8964 80.0955 65.9778 80.7751C65.0774 81.4414 64.5149 82.4777 64.2903 83.8839L63.2457 90.425L61.563 90.1562L64.3715 72.5711L66.0542 72.8398L64.8884 80.1393C65.4627 79.4857 66.1842 79.0258 67.0531 78.7595C67.922 78.4932 68.8778 78.4433 69.9206 78.6098ZM90.8265 82.0459L88.8356 94.5119L87.224 94.2545L87.5873 91.9794C87.0238 92.6671 86.3209 93.1625 85.4786 93.4654C84.6388 93.7526 83.7212 93.8166 82.7258 93.6577C81.0984 93.3978 79.8827 92.7418 79.0785 91.6898C78.2927 90.6246 78.0398 89.215 78.3199 87.4613L79.4744 80.2329L81.157 80.5016L80.0291 87.5641C79.8196 88.8755 79.9846 89.9226 80.5239 90.7054C81.0631 91.4883 81.9332 91.9756 83.134 92.1674C84.4453 92.3768 85.5433 92.1471 86.4279 91.4782C87.3149 90.7936 87.872 89.7403 88.0991 88.3183L89.1438 81.7772L90.8265 82.0459ZM111.101 85.1868C112.665 85.4366 113.818 86.0825 114.559 87.1243C115.316 88.1688 115.554 89.5679 115.274 91.3216L114.12 98.55L112.437 98.2813L113.565 91.2188C113.772 89.9232 113.613 88.8853 113.09 88.1049C112.582 87.3271 111.76 86.8474 110.622 86.6657C109.326 86.4588 108.243 86.6989 107.372 87.3861C106.503 88.0575 105.956 89.0963 105.732 90.5025L104.687 97.0436L103.004 96.7748L104.132 89.7123C104.339 88.4168 104.181 87.3788 103.658 86.5985C103.15 85.8207 102.319 85.3397 101.166 85.1555C99.8861 84.9511 98.8027 85.1912 97.9156 85.8759C97.0469 86.5473 96.5002 87.5861 96.2756 88.9922L95.2309 95.5333L93.5483 95.2646L95.5392 82.7986L97.1508 83.056L96.7874 85.3311C97.3509 84.6434 98.0605 84.1572 98.9161 83.8726C99.7717 83.588 100.713 83.5277 101.74 83.6917C102.783 83.8582 103.648 84.2233 104.336 84.7868C105.039 85.3528 105.511 86.1006 105.752 87.0301C106.341 86.2817 107.099 85.7466 108.025 85.4246C108.97 85.0894 109.995 85.0101 111.101 85.1868ZM132.096 88.637L130.105 101.103L128.493 100.846L128.887 98.3809C128.248 99.1375 127.474 99.6702 126.566 99.9788C125.674 100.29 124.706 100.362 123.663 100.196C122.494 100.009 121.479 99.5714 120.616 98.8828C119.754 98.1942 119.131 97.3251 118.748 96.2755C118.365 95.226 118.272 94.085 118.469 92.8526C118.665 91.6202 119.109 90.565 119.8 89.687C120.492 88.8091 121.353 88.1851 122.384 87.8151C123.418 87.4293 124.519 87.3298 125.688 87.5165C126.7 87.678 127.574 88.0364 128.312 88.5917C129.068 89.1337 129.642 89.8492 130.035 90.7383L130.413 88.3683L132.096 88.637ZM124.044 98.7254C124.913 98.8642 125.727 98.7916 126.485 98.5077C127.262 98.2104 127.907 97.722 128.42 97.0425C128.95 96.3656 129.29 95.5531 129.441 94.6051C129.593 93.6571 129.522 92.779 129.23 91.9708C128.954 91.1651 128.492 90.508 127.844 89.9995C127.214 89.4777 126.465 89.1474 125.596 89.0086C124.711 88.8673 123.88 88.9452 123.104 89.2425C122.346 89.5264 121.702 90.0069 121.172 90.6839C120.659 91.3634 120.326 92.1771 120.175 93.1251C120.024 94.0731 120.086 94.9499 120.362 95.7556C120.655 96.5638 121.115 97.2288 121.745 97.7506C122.393 98.2592 123.159 98.5841 124.044 98.7254ZM143.149 90.3051C144.713 90.5549 145.88 91.2112 146.65 92.2739C147.438 93.3234 147.694 94.7171 147.416 96.4551L146.262 103.683L144.579 103.415L145.707 96.3522C145.914 95.0566 145.748 94.0174 145.209 93.2346C144.669 92.4517 143.799 91.9644 142.598 91.7726C141.255 91.5582 140.125 91.7907 139.206 92.4703C138.306 93.1367 137.743 94.1729 137.519 95.5791L136.474 102.12L134.791 101.851L136.782 89.3855L138.394 89.6429L138.027 91.9417C138.606 91.2565 139.331 90.7729 140.203 90.4908C141.092 90.1954 142.074 90.1335 143.149 90.3051ZM163.292 105.626C162.931 105.86 162.508 106.019 162.025 106.104C161.544 106.173 161.051 106.167 160.545 106.086C159.376 105.899 158.526 105.44 157.995 104.707C157.464 103.974 157.29 103.031 157.474 101.877L159.34 90.1933L161.023 90.462L160.588 93.1875L164.356 93.7893L164.129 95.2113L160.361 94.6095L159.172 102.051C159.054 102.794 159.145 103.392 159.445 103.845C159.748 104.282 160.247 104.556 160.942 104.667C161.7 104.788 162.351 104.673 162.893 104.322L163.292 105.626ZM170.858 107.733C169.657 107.541 168.618 107.1 167.74 106.409C166.864 105.702 166.227 104.822 165.828 103.77C165.429 102.718 165.326 101.584 165.521 100.367C165.715 99.1507 166.166 98.1047 166.872 97.2292C167.579 96.3537 168.458 95.7244 169.507 95.3411C170.557 94.9578 171.682 94.8621 172.883 95.0539C174.084 95.2457 175.123 95.6871 176.001 96.3782C176.879 97.0693 177.51 97.9397 177.893 98.9893C178.292 100.041 178.394 101.176 178.2 102.392C178.006 103.609 177.555 104.655 176.848 105.53C176.157 106.408 175.285 107.047 174.233 107.446C173.184 107.829 172.059 107.925 170.858 107.733ZM171.096 106.24C171.981 106.381 172.803 106.31 173.561 106.026C174.337 105.729 174.983 105.241 175.496 104.561C176.01 103.882 176.342 103.068 176.494 102.12C176.645 101.172 176.583 100.295 176.306 99.4893C176.03 98.6836 175.568 98.0265 174.92 97.518C174.29 96.9961 173.533 96.6646 172.648 96.5233C171.763 96.3819 170.933 96.4599 170.156 96.7572C169.398 97.0411 168.754 97.5216 168.225 98.1986C167.711 98.8781 167.378 99.6918 167.227 100.64C167.076 101.588 167.138 102.465 167.415 103.27C167.707 104.078 168.168 104.744 168.797 105.265C169.445 105.774 170.211 106.099 171.096 106.24ZM193.864 98.5021L191.873 110.968L190.262 110.711L190.625 108.436C190.062 109.123 189.359 109.619 188.517 109.922C187.677 110.209 186.759 110.273 185.764 110.114C184.136 109.854 182.921 109.198 182.116 108.146C181.331 107.081 181.078 105.671 181.358 103.917L182.512 96.689L184.195 96.9578L183.067 104.02C182.858 105.332 183.022 106.379 183.562 107.162C184.101 107.944 184.971 108.432 186.172 108.624C187.483 108.833 188.581 108.603 189.466 107.934C190.353 107.25 190.91 106.196 191.137 104.774L192.182 98.2333L193.864 98.5021ZM201.734 112.664C200.501 112.468 199.438 112.022 198.545 111.329C197.667 110.638 197.028 109.766 196.629 108.714C196.232 107.646 196.131 106.504 196.326 105.287C196.52 104.071 196.97 103.025 197.677 102.149C198.384 101.274 199.263 100.644 200.312 100.261C201.378 99.8802 202.526 99.7882 203.759 99.9851C204.833 100.157 205.755 100.523 206.524 101.083C207.312 101.63 207.886 102.346 208.247 103.23L206.855 103.882C206.543 103.2 206.094 102.659 205.51 102.258C204.929 101.841 204.267 101.573 203.524 101.454C202.624 101.311 201.777 101.386 200.985 101.681C200.211 101.962 199.559 102.441 199.029 103.118C198.516 103.798 198.183 104.612 198.032 105.56C197.878 106.523 197.939 107.408 198.216 108.214C198.51 109.006 198.98 109.665 199.626 110.189C200.29 110.7 201.072 111.027 201.972 111.171C202.715 111.29 203.426 111.25 204.106 111.05C204.786 110.851 205.381 110.476 205.89 109.926L207.01 110.979C206.391 111.707 205.621 112.216 204.7 112.506C203.781 112.781 202.792 112.833 201.734 112.664ZM218.113 102.278C219.677 102.527 220.844 103.184 221.614 104.246C222.402 105.296 222.658 106.69 222.38 108.428L221.226 115.656L219.543 115.387L220.671 108.325C220.878 107.029 220.712 105.99 220.173 105.207C219.633 104.424 218.763 103.937 217.562 103.745C216.219 103.531 215.089 103.763 214.17 104.443C213.27 105.109 212.707 106.145 212.483 107.552L211.438 114.093L209.755 113.824L212.564 96.2388L214.246 96.5076L213.081 103.807C213.655 103.153 214.376 102.693 215.245 102.427C216.114 102.161 217.07 102.111 218.113 102.278ZM233.988 104.91L235.67 105.179L233.679 117.645L231.997 117.376L233.988 104.91ZM235.276 102.321C234.929 102.265 234.655 102.1 234.456 101.825C234.257 101.551 234.184 101.247 234.237 100.915C234.287 100.599 234.45 100.342 234.725 100.143C235 99.9436 235.311 99.8718 235.658 99.9273C236.006 99.9828 236.279 100.148 236.479 100.423C236.68 100.682 236.756 100.969 236.705 101.285C236.65 101.633 236.485 101.906 236.21 102.105C235.935 102.305 235.624 102.376 235.276 102.321ZM246.719 106.846C248.283 107.096 249.45 107.752 250.22 108.815C251.009 109.865 251.264 111.258 250.987 112.996L249.832 120.225L248.149 119.956L249.277 112.893C249.484 111.598 249.318 110.559 248.779 109.776C248.24 108.993 247.369 108.506 246.169 108.314C244.826 108.099 243.695 108.332 242.776 109.012C241.876 109.678 241.313 110.714 241.089 112.12L240.044 118.661L238.361 118.393L240.352 105.927L241.964 106.184L241.597 108.483C242.176 107.798 242.901 107.314 243.773 107.032C244.663 106.737 245.645 106.675 246.719 106.846ZM273.97 111.296L271.979 123.762L270.367 123.504L270.761 121.04C270.122 121.796 269.348 122.329 268.44 122.637C267.548 122.949 266.58 123.021 265.537 122.854C264.368 122.668 263.352 122.23 262.49 121.541C261.628 120.853 261.005 119.984 260.622 118.934C260.239 117.885 260.146 116.744 260.342 115.511C260.539 114.279 260.983 113.224 261.674 112.346C262.365 111.468 263.227 110.844 264.258 110.474C265.292 110.088 266.393 109.988 267.562 110.175C268.573 110.337 269.448 110.695 270.186 111.25C270.942 111.792 271.516 112.508 271.909 113.397L272.287 111.027L273.97 111.296ZM265.918 121.384C266.787 121.523 267.601 121.45 268.359 121.166C269.135 120.869 269.781 120.381 270.294 119.701C270.824 119.024 271.164 118.212 271.315 117.264C271.467 116.316 271.396 115.438 271.104 114.629C270.828 113.824 270.366 113.167 269.718 112.658C269.088 112.136 268.339 111.806 267.47 111.667C266.585 111.526 265.754 111.604 264.978 111.901C264.219 112.185 263.576 112.666 263.046 113.343C262.533 114.022 262.2 114.836 262.049 115.784C261.897 116.732 261.96 117.609 262.236 118.414C262.528 119.222 262.989 119.887 263.619 120.409C264.267 120.918 265.033 121.243 265.918 121.384ZM78.7028 109.38C79.872 109.567 80.8877 110.004 81.7499 110.693C82.6146 111.366 83.2386 112.227 83.6219 113.277C84.0051 114.326 84.0984 115.467 83.9015 116.699C83.7022 117.948 83.2569 119.011 82.5658 119.889C81.8747 120.767 81.0123 121.399 79.9785 121.784C78.963 122.157 77.8628 122.249 76.6778 122.059C75.6666 121.898 74.7831 121.546 74.0271 121.004C73.2894 120.449 72.7242 119.727 72.3315 118.837L71.2225 125.781L69.5398 125.513L72.2651 108.449L73.8767 108.706L73.483 111.171C74.1198 110.43 74.8843 109.904 75.7766 109.593C76.6846 109.284 77.66 109.213 78.7028 109.38ZM76.7978 120.547C77.6668 120.686 78.4883 120.615 79.2624 120.333C80.039 120.036 80.6841 119.548 81.1977 118.868C81.7271 118.191 82.0675 117.379 82.2189 116.431C82.3703 115.483 82.2986 114.613 82.0039 113.82C81.7275 113.014 81.2666 112.349 80.6212 111.825C79.9758 111.301 79.2186 110.969 78.3497 110.83C77.4649 110.689 76.6342 110.767 75.8576 111.064C75.0968 111.364 74.4517 111.852 73.9223 112.529C73.4112 113.193 73.08 113.999 72.9286 114.947C72.7772 115.895 72.8397 116.772 73.1161 117.577C73.4083 118.386 73.8692 119.051 74.4987 119.572C75.1467 120.081 75.913 120.406 76.7978 120.547ZM88.3272 111.014L90.0098 111.283L88.0189 123.749L86.3362 123.48L88.3272 111.014ZM89.6156 108.425C89.268 108.37 88.9947 108.204 88.7955 107.93C88.5964 107.655 88.5233 107.351 88.5763 107.02C88.6267 106.704 88.7894 106.446 89.0642 106.247C89.3391 106.048 89.6503 105.976 89.9979 106.031C90.3455 106.087 90.6189 106.252 90.818 106.527C91.0197 106.786 91.0953 107.074 91.0448 107.39C90.9893 107.737 90.8241 108.01 90.5493 108.21C90.2744 108.409 89.9632 108.481 89.6156 108.425ZM100.64 125.765L97.5151 119.919L92.7009 124.497L90.8049 124.194L96.7564 118.582L93.0328 111.766L94.9288 112.069L97.8936 117.549L102.418 113.265L104.266 113.56L98.605 118.878L102.56 126.071L100.64 125.765ZM110.473 125.926C111.247 126.049 111.98 126.028 112.67 125.863C113.379 125.685 114.006 125.364 114.55 124.9L115.324 126.141C114.665 126.716 113.897 127.112 113.02 127.329C112.142 127.545 111.206 127.574 110.211 127.415C108.931 127.21 107.836 126.76 106.927 126.064C106.02 125.352 105.367 124.47 104.968 123.418C104.568 122.366 104.466 121.231 104.66 120.015C104.855 118.798 105.289 117.75 105.965 116.869C106.656 115.991 107.51 115.358 108.528 114.97C109.546 114.581 110.648 114.482 111.833 114.671C112.939 114.848 113.894 115.26 114.698 115.906C115.518 116.556 116.116 117.373 116.494 118.356C116.887 119.343 117.008 120.415 116.855 121.574L106.299 121.929C106.453 122.991 106.895 123.88 107.623 124.595C108.37 125.298 109.32 125.741 110.473 125.926ZM111.602 116.117C110.733 115.978 109.918 116.059 109.157 116.358C108.415 116.645 107.788 117.12 107.277 117.784C106.784 118.434 106.463 119.225 106.315 120.158C106.277 120.395 106.257 120.57 106.255 120.683L115.32 120.381C115.297 119.308 114.951 118.377 114.283 117.59C113.618 116.787 112.724 116.296 111.602 116.117ZM122.713 129.411C121.591 129.232 120.772 128.778 120.257 128.047C119.758 127.319 119.598 126.394 119.777 125.273L122.033 111.148L123.715 111.416L121.482 125.399C121.364 126.142 121.446 126.738 121.731 127.189C122.018 127.624 122.509 127.896 123.204 128.007C123.647 128.078 124.037 128.068 124.376 127.976L124.271 129.393C123.754 129.489 123.234 129.495 122.713 129.411ZM139.673 119.215L137.682 131.681L136.07 131.423L136.464 128.959C135.825 129.715 135.051 130.248 134.143 130.557C133.251 130.868 132.283 130.94 131.241 130.773C130.071 130.587 129.056 130.149 128.193 129.46C127.331 128.772 126.709 127.903 126.325 126.853C125.942 125.804 125.849 124.663 126.046 123.43C126.242 122.198 126.686 121.143 127.378 120.265C128.069 119.387 128.93 118.763 129.961 118.393C130.995 118.007 132.096 117.907 133.266 118.094C134.277 118.256 135.151 118.614 135.889 119.169C136.645 119.711 137.219 120.427 137.612 121.316L137.99 118.946L139.673 119.215ZM131.621 129.303C132.49 129.442 133.304 129.369 134.062 129.085C134.839 128.788 135.484 128.3 135.997 127.62C136.527 126.943 136.867 126.131 137.019 125.183C137.17 124.235 137.1 123.357 136.807 122.548C136.531 121.743 136.069 121.086 135.421 120.577C134.791 120.055 134.042 119.725 133.173 119.586C132.288 119.445 131.458 119.523 130.681 119.82C129.923 120.104 129.279 120.585 128.749 121.262C128.236 121.941 127.903 122.755 127.752 123.703C127.601 124.651 127.663 125.528 127.939 126.333C128.232 127.141 128.693 127.806 129.322 128.328C129.97 128.837 130.736 129.162 131.621 129.303ZM148.628 132.651C148.266 132.885 147.844 133.044 147.36 133.129C146.879 133.198 146.386 133.192 145.881 133.112C144.711 132.925 143.861 132.465 143.33 131.732C142.799 130.999 142.626 130.056 142.81 128.903L144.676 117.219L146.359 117.487L145.923 120.213L149.692 120.815L149.465 122.237L145.696 121.635L144.508 129.077C144.389 129.819 144.48 130.417 144.78 130.87C145.083 131.307 145.582 131.581 146.277 131.692C147.036 131.814 147.686 131.699 148.228 131.348L148.628 132.651ZM156.669 133.303C157.443 133.427 158.175 133.406 158.866 133.241C159.575 133.063 160.202 132.742 160.746 132.278L161.519 133.519C160.86 134.094 160.092 134.49 159.215 134.707C158.338 134.923 157.402 134.952 156.407 134.793C155.127 134.588 154.032 134.138 153.123 133.442C152.215 132.73 151.562 131.848 151.163 130.796C150.764 129.744 150.662 128.609 150.856 127.393C151.05 126.176 151.485 125.128 152.161 124.247C152.852 123.369 153.706 122.736 154.724 122.348C155.742 121.959 156.844 121.86 158.029 122.049C159.135 122.226 160.09 122.637 160.894 123.284C161.714 123.934 162.312 124.75 162.69 125.734C163.083 126.721 163.204 127.793 163.051 128.952L152.495 129.307C152.649 130.369 153.091 131.258 153.819 131.973C154.565 132.676 155.515 133.119 156.669 133.303ZM157.798 123.495C156.929 123.356 156.114 123.436 155.353 123.736C154.611 124.023 153.984 124.498 153.473 125.161C152.98 125.812 152.659 126.603 152.51 127.535C152.473 127.772 152.453 127.947 152.451 128.061L161.516 127.758C161.493 126.685 161.147 125.755 160.479 124.968C159.813 124.165 158.92 123.674 157.798 123.495ZM179.604 120.342L176.796 137.928L175.184 137.67L175.578 135.205C174.938 135.962 174.165 136.495 173.257 136.803C172.364 137.115 171.397 137.187 170.354 137.02C169.185 136.834 168.169 136.396 167.307 135.707C166.445 135.019 165.822 134.15 165.439 133.1C165.056 132.05 164.962 130.909 165.159 129.677C165.356 128.445 165.8 127.39 166.491 126.512C167.182 125.634 168.044 125.01 169.075 124.64C170.109 124.254 171.21 124.154 172.379 124.341C173.39 124.502 174.265 124.861 175.002 125.416C175.758 125.958 176.333 126.674 176.725 127.563L177.922 120.074L179.604 120.342ZM170.735 135.55C171.604 135.689 172.417 135.616 173.176 135.332C173.952 135.035 174.597 134.547 175.111 133.867C175.64 133.19 175.981 132.378 176.132 131.43C176.284 130.482 176.213 129.604 175.921 128.795C175.645 127.99 175.182 127.333 174.535 126.824C173.905 126.302 173.156 125.972 172.287 125.833C171.402 125.692 170.571 125.77 169.795 126.067C169.036 126.351 168.393 126.831 167.863 127.508C167.35 128.188 167.017 129.002 166.866 129.95C166.714 130.898 166.777 131.774 167.053 132.58C167.345 133.388 167.806 134.053 168.436 134.575C169.084 135.084 169.85 135.409 170.735 135.55ZM208.896 130.27L207.795 137.167C207.499 139.015 206.831 140.359 205.79 141.197C204.751 142.02 203.371 142.293 201.648 142.018C200.558 141.844 199.675 141.492 198.998 140.963C198.339 140.42 197.885 139.659 197.637 138.68C197.098 139.517 196.431 140.091 195.636 140.402C194.841 140.712 193.891 140.779 192.785 140.603C191.063 140.328 189.836 139.638 189.105 138.532C188.377 137.412 188.16 135.927 188.456 134.078L189.557 127.182L191.24 127.45L190.161 134.205C189.926 135.674 190.037 136.81 190.492 137.612C190.95 138.398 191.795 138.889 193.027 139.086C194.244 139.28 195.201 139.069 195.899 138.451C196.613 137.836 197.089 136.786 197.326 135.3L198.397 128.593L200.08 128.862L199.009 135.569C198.771 137.054 198.888 138.199 199.359 139.004C199.83 139.808 200.682 140.308 201.914 140.505C203.115 140.697 204.055 140.491 204.735 139.886C205.433 139.269 205.9 138.225 206.135 136.756L207.213 130.002L208.896 130.27ZM216.553 144.399C215.353 144.207 214.313 143.766 213.435 143.074C212.56 142.367 211.922 141.488 211.523 140.436C211.124 139.384 211.022 138.249 211.216 137.033C211.411 135.816 211.861 134.77 212.568 133.895C213.275 133.019 214.153 132.39 215.203 132.007C216.252 131.623 217.378 131.528 218.578 131.719C219.779 131.911 220.819 132.353 221.696 133.044C222.574 133.735 223.205 134.605 223.588 135.655C223.987 136.707 224.09 137.841 223.896 139.058C223.701 140.274 223.251 141.32 222.544 142.196C221.853 143.074 220.981 143.712 219.929 144.111C218.879 144.495 217.754 144.591 216.553 144.399ZM216.792 142.906C217.677 143.047 218.498 142.976 219.256 142.692C220.033 142.394 220.678 141.906 221.192 141.227C221.705 140.547 222.038 139.733 222.189 138.785C222.341 137.837 222.278 136.96 222.002 136.155C221.725 135.349 221.263 134.692 220.615 134.183C219.986 133.662 219.228 133.33 218.344 133.189C217.459 133.047 216.628 133.125 215.852 133.423C215.093 133.707 214.449 134.187 213.92 134.864C213.406 135.544 213.074 136.357 212.923 137.305C212.771 138.253 212.834 139.13 213.11 139.936C213.402 140.744 213.863 141.409 214.493 141.931C215.141 142.439 215.907 142.764 216.792 142.906ZM229.548 136.072C230.077 135.298 230.762 134.759 231.605 134.456C232.463 134.156 233.469 134.098 234.622 134.282L234.361 135.917L233.962 135.829C232.65 135.62 231.559 135.858 230.688 136.546C229.816 137.233 229.265 138.303 229.032 139.757L228.018 146.108L226.335 145.84L228.326 133.373L229.938 133.631L229.548 136.072ZM239.151 148.008C238.029 147.829 237.211 147.374 236.696 146.643C236.196 145.916 236.036 144.991 236.215 143.869L238.471 129.744L240.154 130.013L237.921 143.996C237.802 144.738 237.885 145.335 238.169 145.785C238.456 146.22 238.948 146.493 239.643 146.604C240.085 146.674 240.476 146.664 240.814 146.572L240.71 147.989C240.192 148.085 239.673 148.091 239.151 148.008ZM256.929 132.692L254.12 150.277L252.509 150.02L252.903 147.555C252.263 148.312 251.49 148.844 250.581 149.153C249.689 149.464 248.722 149.536 247.679 149.37C246.51 149.183 245.494 148.745 244.632 148.057C243.77 147.368 243.147 146.499 242.764 145.45C242.38 144.4 242.287 143.259 242.484 142.027C242.681 140.794 243.125 139.739 243.816 138.861C244.507 137.983 245.368 137.359 246.399 136.989C247.433 136.603 248.535 136.504 249.704 136.69C250.715 136.852 251.59 137.21 252.327 137.766C253.083 138.308 253.658 139.023 254.05 139.912L255.246 132.423L256.929 132.692ZM248.06 147.899C248.929 148.038 249.742 147.966 250.5 147.682C251.277 147.384 251.922 146.896 252.436 146.217C252.965 145.54 253.306 144.727 253.457 143.779C253.608 142.831 253.538 141.953 253.246 141.145C252.969 140.339 252.507 139.682 251.859 139.173C251.23 138.652 250.48 138.321 249.611 138.183C248.727 138.041 247.896 138.119 247.119 138.416C246.361 138.7 245.717 139.181 245.188 139.858C244.674 140.537 244.342 141.351 244.19 142.299C244.039 143.247 244.101 144.124 244.378 144.93C244.67 145.738 245.131 146.403 245.761 146.925C246.408 147.433 247.175 147.758 248.06 147.899Z" fill="#28ADD5"/>
<path d="M324.95 123.108C321.801 142.827 301.71 158.163 271.246 166.831C240.848 175.481 200.403 177.395 157.129 170.483C113.854 163.572 76.0171 149.156 49.8253 131.468C23.5771 113.742 9.26199 92.9113 12.4113 73.1922C15.5606 53.4731 35.652 38.1372 66.1155 29.4688C96.5137 20.8191 136.959 18.9054 180.233 25.8166C223.507 32.7279 261.345 47.1441 287.536 64.8319C313.785 82.5576 328.1 103.389 324.95 123.108Z" stroke="#28ADD5" stroke-width="1.5"/>
</svg>
