<svg xmlns="http://www.w3.org/2000/svg" width="187.68" height="78.48" viewBox="0 0 187.68 78.48"><path d="M93.84,4.49c24.8544,0,48.211,3.69,65.7673,10.3892,8.495,3.2417,15.1551,7.0081,19.7952,11.1946,4.7263,4.2643,7.123,8.77,7.123,13.3927s-2.3966,9.1284-7.1231,13.3928c-4.64,4.1864-11.3,7.9528-19.7952,11.1945-17.5561,6.7-40.9128,10.3892-65.7672,10.3892s-48.211-3.69-65.7674-10.3892C19.5777,60.8125,12.9176,57.0461,8.2774,52.86c-4.7263-4.2644-7.1229-8.77-7.1229-13.3928s2.3966-9.1284,7.1231-13.3928c4.64-4.1864,11.3-7.9528,19.7952-11.1946C45.6289,8.18,68.9856,4.49,93.84,4.49m0-.65C42.2787,3.84.48,19.7906.48,39.4668S42.2786,75.0935,93.84,75.0935,187.2,59.1429,187.2,39.4668,145.4014,3.84,93.84,3.84Z" fill="#f7d321"/><path d="M3.4664,56.7642s6.3466-.0908,7.7041-1.35c1.6048-1.4885,2.2388-9.877,2.2388-9.877s.4393,8.6842,2.3293,9.859c1.7654,1.0974,7.3172,1.4337,7.3172,1.4337s-6.1673.974-7.5394,3.1936c-1.1194,1.8107-1.9755,9.7782-1.9755,9.7782s-.5883-7.5752-2.0412-9.7782C9.7618,57.3886,3.4664,56.7642,3.4664,56.7642Z" fill="#f7d321"/><polygon points="179.686 30.421 169.382 22.082 173.528 34.673 167.507 22.863 166.172 36.052 165.475 22.814 158.892 34.32 163.64 21.943 152.946 29.777 162.317 20.401 149.361 23.208 161.736 18.454 148.758 15.749 161.996 16.439 151.242 8.689 163.055 14.704 156.382 3.25 164.726 13.55 163.289 0.372 166.724 13.175 170.771 0.552 168.7 13.646 177.532 3.76 170.315 14.879 182.404 9.44 171.288 16.663 184.544 16.611 171.452 18.688 183.583 24.032 170.778 20.605 179.686 30.421" fill="#f7d321"/></svg>