<svg xmlns="http://www.w3.org/2000/svg" width="714.84" height="488.3656" viewBox="0 0 714.84 488.3656"><path d="M109.6375,86.861l-17.064,24.0576-1.9585-1.1192c-.5591-15.9453-8.3921-36.646-23.498-34.4082C39.7024,79.5875,36.0662,151.76,36.0662,175.5382v10.91c0,9.791,1.958,13.9873,6.1543,16.5049v1.958H7.5325v-1.958c4.4761-2.5176,6.4341-6.7139,6.4341-16.5049V91.8961c0-9.791-.8394-12.5884-6.4341-13.4277V76.51l26.2954-6.1543h2.2383v74.97c2.7974-33.8486,10.63-74.97,40.2822-74.97C91.4544,70.3561,100.1262,75.671,109.6375,86.861Z" fill="#008e53"/><path d="M260.9773,132.4581c0,44.7583-38.3242,74.1309-75.8091,74.1309-37.7651,0-69.935-22.9385-69.935-62.1021,0-46.1567,38.3242-74.1308,75.81-74.1308S260.9773,93.8541,260.9773,132.4581Zm-23.498-8.9516c-9.7906-33.5684-36.0864-57.3467-67.9766-48.1153s-40.562,44.1993-30.7715,78.0474c9.791,33.5689,36.0865,57.6265,67.9771,48.1152C238.5984,192.3224,247.27,157.3551,237.4793,123.5065Z" fill="#008e53"/><path d="M419.305,125.465c1.958,69.375-62.3819,81.124-93.7129,81.124-14.5464,0-25.4561-6.1538-31.0508-5.8745-3.9165.28-5.3154,3.9165-5.8745,5.8745h-1.6787V24.7584c0-9.7905-.8394-12.5879-6.4341-13.4272V9.0934l26.5752-5.8745h1.9585V147.0045c5.0351-32.45,19.3017-76.6484,58.4653-76.6484C390.4915,70.3561,418.4656,89.9381,419.305,125.465Zm-21.54-3.9165c-1.3989-24.3374-18.7427-50.9126-42.5205-46.1573-31.61,6.1543-46.1567,64.62-46.1567,88.1182v38.8838a44.49,44.49,0,0,0,16.7842,2.5176C352.7268,204.631,401.6814,192.882,397.7649,121.5485Z" fill="#008e53"/><path d="M527.0008,124.3458s-22.3789,55.668-32.45,80.565c-10.0708,25.1767-22.6587,46.1572-44.7583,46.1572-15.106,0-26.0157-6.9937-33.0093-19.8618l21.82-19.8613,1.6782,1.3984c-2.7973,15.6655.28,37.2056,15.6656,35.5268,14.5463-1.6782,26.0156-20.1411,35.247-40.8417l-35.8066-84.2017c-11.749-27.4141-17.6236-39.4429-31.0513-50.6328V70.3561h42.8v2.2378c-6.9936,7.5532-4.7554,15.1059,1.6787,30.7715l33.2886,77.7675,22.939-57.0669c10.35-25.7358,13.707-41.1215,1.1186-51.4721V70.3561h33.0093v2.2378C547.1419,84.9025,537.3513,98.61,527.0008,124.3458Z" fill="#008e53"/><path d="M711.3465,202.9528v1.958H676.659v-1.958c4.4756-2.5176,5.5947-7.2735,4.7553-16.5049s-5.0351-56.5073-6.434-71.0537c-1.9581-20.98-12.3086-44.7583-36.3663-40.003-31.3305,6.1543-37.205,64.62-37.205,88.1182v22.9385c0,9.791,1.958,13.9873,6.434,16.5049v1.958H573.1551v-1.958c4.1962-2.5176,6.1543-6.7139,6.1543-16.5049V91.8961c0-9.791-.8394-12.5884-6.1543-13.4277V76.51l26.2954-6.1543h1.9585v69.3755c3.6367-31.3311,13.1474-69.3755,49.5136-69.3755,22.939,0,42.52,15.6655,45.8775,49.2344,2.7973,27.1347,5.5947,56.5073,6.7138,66.8574C704.6326,196.5187,707.15,200.4352,711.3465,202.9528Z" fill="#008e53"/><path d="M146.5633,434.9108H118.3094v-74.97C112.9944,392.39,98.7278,436.59,59.5642,436.59c-22.6591,0-50.6328-19.582-51.7519-55.3887-1.6782-69.0957,62.6616-80.8447,93.7129-80.8447a58.8978,58.8978,0,0,1,16.7842,2.5176V254.7584c0-9.7905-.8394-12.5879-6.4341-13.4272v-2.2378l26.5752-5.8745h1.9585v183.229c0,9.791,1.958,13.9873,6.1543,16.5049Zm-28.2539-91.4746V304.2721a61.6656,61.6656,0,0,0-16.7842-2.5176c-27.1348.56-75.81,12.3086-71.8931,83.6426C31.0305,409.734,48.095,436.03,72.1526,431.5543,103.4832,425.4,118.3094,366.9342,118.3094,343.4362Z" fill="#008e53"/><path d="M290.9026,434.9108H262.6492V395.7477c-7.2734,24.6162-22.6587,40.8418-49.5142,40.8418-22.9384,0-45.3173-10.91-48.9541-31.0518C159.4251,377.0045,176.49,360.22,198.03,351.2692c-7.2735-16.2256,1.3984-50.9131,38.8838-50.9131,23.2182,0,47.8349,12.3086,47.8349,46.7168v69.375c0,9.791,1.9585,13.9873,6.1543,16.5049Zm-28.2534-44.1992V347.6325a53.39,53.39,0,0,0-16.7842-2.5176c-30.4917,0-71.893,15.1054-59.8642,64.34,3.6362,15.1055,19.8613,24.3369,33.8481,23.4981C244.1863,431.5543,257.0545,410.8532,262.6492,390.7116ZM200.8269,350.15c15.106-5.5947,31.89-7.5537,45.0381-7.5537a58.8669,58.8669,0,0,1,16.7842,2.5186v-1.959c0-21.26-8.3921-40.002-28.2539-40.002C209.219,303.1539,192.4344,327.4909,200.8269,350.15Z" fill="#008e53"/><path d="M448.6717,432.9528v1.958H413.9842v-1.958c4.4755-2.5176,5.5947-7.2735,4.7553-16.5049s-5.0351-56.5069-6.4341-71.0537c-1.958-20.9805-12.3085-44.7588-36.3662-40.003-31.3305,6.1543-37.205,64.62-37.205,88.1182v22.9385c0,9.791,1.958,13.9873,6.434,16.5049v1.958H310.48v-1.958c4.1962-2.5176,6.1543-6.7139,6.1543-16.5049V321.8961c0-9.791-.8394-12.5879-6.1543-13.4277V306.51l26.2954-6.1543h1.9585v69.375c3.6367-31.33,13.1474-69.375,49.5136-69.375,22.939,0,42.5205,15.665,45.8775,49.2344,2.7973,27.1347,5.5947,56.5068,6.7138,66.8574C441.9578,426.5182,444.4754,430.4352,448.6717,432.9528Z" fill="#008e53"/><path d="M630.7776,448.8981c0,22.0986-27.9741,36.3662-51.7519,36.3662-20.1411,0-29.9322-10.91-36.6455-20.1416-12.8682,7.833-26.855,15.1055-40.003,15.9453-14.8261,1.1191-26.0156-4.1963-26.2954-17.0645-.56-17.0644,26.2954-26.2949,45.877-28.2539-32.7295-3.916-59.3047-25.7353-59.3047-61.2627,0-46.1572,38.604-74.1308,76.0893-74.1308A82.3165,82.3165,0,0,1,570.074,306.51L617.91,292.5231l1.6787,13.9873-45.0381,1.958c20.1411,9.791,34.1279,28.5332,34.1279,53.99,0,44.7578-38.3242,74.1309-76.0889,74.1309a10.4715,10.4715,0,0,1-2.7973-.28c-18.4629.84-40.003,7.2734-38.604,24.0576.56,9.2315,5.3149,15.9453,15.665,15.9453,14.2671.28,30.4917-10.63,48.395-21.54,20.7007-12.3086,38.0445-26.8545,52.3116-27.4141C624.3435,427.0778,630.7776,436.59,630.7776,448.8981Zm-76.3691-17.3438c31.6108-9.2314,40.5625-44.1992,30.7715-78.0478-9.7911-33.5684-36.0865-57.3467-67.9766-48.1153s-40.562,44.1993-30.7715,78.0479C496.2229,417.0075,522.5183,441.0651,554.4085,431.5543Zm45.3178,1.3985c-8.6718,1.1191-26.5751,13.1474-42.8,23.2177q-6.2943,3.7779-12.5883,7.5538c5.3149,7.832,13.9868,19.3017,34.6875,19.581,21.54.28,33.5688-11.1894,34.688-29.6523C614.2727,440.7858,610.9163,431.2741,599.7263,432.9528Z" fill="#008e53"/><path d="M496.4721,364.5309s24.9229-.3564,30.2537-5.3009c6.3021-5.8452,8.7918-38.787,8.7918-38.787s1.7251,34.1028,9.1474,38.7164c6.9324,4.31,28.7344,5.63,28.7344,5.63s-24.219,3.8246-29.6073,12.541c-4.3956,7.1108-7.7575,38.3991-7.7575,38.3991s-2.31-29.7478-8.0159-38.3991C521.1942,366.983,496.4721,364.5309,496.4721,364.5309Z" fill="#f7d321"/><polygon points="221.354 173.808 193.839 148.196 203.099 184.628 188.38 150.038 182.02 187.088 182.643 149.502 161.764 180.762 177.62 146.678 145.832 166.744 174.181 142.056 136.979 147.457 172.919 136.434 136.737 126.237 174.051 130.785 145.145 106.752 177.386 126.085 160.753 92.373 182.341 123.147 180.859 85.585 188.064 122.48 201.988 87.561 193.563 124.198 220.486 97.962 197.889 128.003 233.156 114.986 200.294 133.24 237.805 135.692 200.36 139.001 233.63 156.498 198.077 144.292 221.354 173.808" fill="#f7d321"/></svg>