<svg xmlns="http://www.w3.org/2000/svg" width="714.84" height="488.3656" viewBox="0 0 714.84 488.3656"><text transform="translate(-3.657 204.9108)" font-size="279.7359" fill="#008e53" font-family="NewYork"><tspan letter-spacing="-0.02em">r</tspan><tspan x="107.7007" y="0">o</tspan><tspan x="273.0215" y="0" letter-spacing="-0.04em">b</tspan><tspan x="420.4404" y="0">yn </tspan><tspan x="0" y="230">da</tspan><tspan x="302.9478" y="230" letter-spacing="-0.01em">n</tspan><tspan x="455.1216" y="230">g</tspan></text><path d="M496.4721,364.5309s24.9229-.3564,30.2537-5.3009c6.3021-5.8452,8.7918-38.787,8.7918-38.787s1.7251,34.1028,9.1474,38.7164c6.9324,4.31,28.7344,5.63,28.7344,5.63s-24.219,3.8246-29.6073,12.541c-4.3956,7.1108-7.7575,38.3991-7.7575,38.3991s-2.31-29.7478-8.0159-38.3991C521.1942,366.983,496.4721,364.5309,496.4721,364.5309Z" fill="#f7d321"/><polygon points="221.354 173.808 193.839 148.196 203.099 184.628 188.38 150.038 182.02 187.088 182.643 149.502 161.764 180.762 177.62 146.678 145.832 166.744 174.181 142.056 136.979 147.457 172.919 136.434 136.737 126.237 174.051 130.785 145.145 106.752 177.386 126.085 160.753 92.373 182.341 123.147 180.859 85.585 188.064 122.48 201.988 87.561 193.563 124.198 220.486 97.962 197.889 128.003 233.156 114.986 200.294 133.24 237.805 135.692 200.36 139.001 233.63 156.498 198.077 144.292 221.354 173.808" fill="#f7d321"/></svg>