<svg xmlns="http://www.w3.org/2000/svg" width="35.09in" height="17.56in" viewBox="0 0 2526.45 1264.18"><title>parallax</title><path d="M72.18,233.53,52.6,205.25A13.17,13.17,0,0,1,54,189.18h0a7.3,7.3,0,0,1,3.37-1.9,10.16,10.16,0,0,1,10.79,4l4,5.49,4.15-5.64a10.17,10.17,0,0,1,10.65-4A7.24,7.24,0,0,1,90.37,189l.47.48A13.16,13.16,0,0,1,92.28,206Z" transform="translate(-26.68 -8.72)" fill="none" stroke="#1e1f29" stroke-miterlimit="10" stroke-width="3"/><path d="M2048.88,780.69l-19.59-28.29a13.14,13.14,0,0,1,1.42-16.06h0a7.12,7.12,0,0,1,3.37-1.9,10.14,10.14,0,0,1,10.78,3.95l4,5.49,4.15-5.63a10.14,10.14,0,0,1,10.64-4,7.37,7.37,0,0,1,3.39,1.83l.47.49a13.15,13.15,0,0,1,1.45,16.52Z" transform="translate(-26.68 -8.72)" fill="none" stroke="#1e1f29" stroke-miterlimit="10" stroke-width="3"/><path d="M979,1161l-19.59-28.29a13.14,13.14,0,0,1,1.42-16.06h0a7,7,0,0,1,3.37-1.9,10.14,10.14,0,0,1,10.78,4l4,5.49,4.15-5.64a10.15,10.15,0,0,1,10.64-4,7.19,7.19,0,0,1,3.39,1.83l.47.49a13.15,13.15,0,0,1,1.45,16.52Z" transform="translate(-26.68 -8.72)" fill="none" stroke="#1e1f29" stroke-miterlimit="10" stroke-width="3"/><path d="M156.9,947.83l-19.59-28.28a13.15,13.15,0,0,1,1.41-16.06h0a7.23,7.23,0,0,1,3.37-1.91,10.16,10.16,0,0,1,10.79,4l4,5.49,4.15-5.64a10.15,10.15,0,0,1,10.64-4,7.19,7.19,0,0,1,3.39,1.83l.47.48A13.18,13.18,0,0,1,177,920.27Z" transform="translate(-26.68 -8.72)" fill="none" stroke="#1e1f29" stroke-miterlimit="10" stroke-width="3"/><path d="M2367,464.28,2347.43,436a13.15,13.15,0,0,1,1.42-16.06h0a7.17,7.17,0,0,1,3.37-1.9,10.13,10.13,0,0,1,10.78,4l4,5.49,4.15-5.63a10.16,10.16,0,0,1,10.65-4,7.38,7.38,0,0,1,3.38,1.83l.47.49a13.15,13.15,0,0,1,1.45,16.52Z" transform="translate(-26.68 -8.72)" fill="none" stroke="#1e1f29" stroke-miterlimit="10" stroke-width="3"/><path d="M2070.9,1065.57l-19.59-28.29a13.14,13.14,0,0,1,1.42-16.06h0a7,7,0,0,1,3.37-1.9,10.14,10.14,0,0,1,10.78,3.95l4,5.49,4.15-5.64a10.15,10.15,0,0,1,10.64-4,7.19,7.19,0,0,1,3.39,1.83l.47.49A13.15,13.15,0,0,1,2091,1038Z" transform="translate(-26.68 -8.72)" fill="none" stroke="#1e1f29" stroke-miterlimit="10" stroke-width="3"/><polygon points="1198.5 130.23 1178.15 154.75 1157.98 130.23 1178.15 105.71 1198.5 130.23" fill="none" stroke="#1e1f29" stroke-miterlimit="10" stroke-width="3"/><polygon points="1632.32 408.85 1611.97 433.37 1591.81 408.85 1611.97 384.33 1632.32 408.85" fill="none" stroke="#1e1f29" stroke-miterlimit="10" stroke-width="3"/><polygon points="1555.05 1153.48 1534.7 1178 1514.54 1153.48 1534.7 1128.96 1555.05 1153.48" fill="none" stroke="#1e1f29" stroke-miterlimit="10" stroke-width="3"/><polygon points="2360.94 81.13 2340.59 105.64 2320.43 81.13 2340.59 56.61 2360.94 81.13" fill="none" stroke="#1e1f29" stroke-miterlimit="10" stroke-width="3"/><path d="M1594.13,842a10.62,10.62,0,0,0-4.63,0,10.83,10.83,0,1,0-18.93-.15,10,10,0,0,0-1.45-.11,11,11,0,0,0-10.81,12.84c.94,5.61,6,9.05,11.65,9.05a16.21,16.21,0,0,0,8-1.9s0,5.68-5.16,13.45h15.7c-5.25-8-5-13.61-5-13.61a18.07,18.07,0,0,0,8.42,2.09,11,11,0,0,0,11-10.54A11.13,11.13,0,0,0,1594.13,842Z" transform="translate(-26.68 -8.72)" fill="none" stroke="#1e1f29" stroke-miterlimit="10" stroke-width="3"/><path d="M724.76,866.62a10.62,10.62,0,0,0-4.63,0,10.82,10.82,0,1,0-18.93-.15,9.9,9.9,0,0,0-1.45-.11A11,11,0,0,0,689,879.21c.93,5.61,5.95,9,11.65,9a16.19,16.19,0,0,0,8-1.9s0,5.68-5.16,13.45h15.7c-5.25-8-5-13.62-5-13.62a18,18,0,0,0,8.42,2.1,11,11,0,0,0,11-10.54A11.15,11.15,0,0,0,724.76,866.62Z" transform="translate(-26.68 -8.72)" fill="none" stroke="#1e1f29" stroke-miterlimit="10" stroke-width="3"/><path d="M2542.94,842a10.62,10.62,0,0,0-4.63,0,10.82,10.82,0,1,0-18.93-.15,9.79,9.79,0,0,0-1.45-.11,11,11,0,0,0-10.8,12.84c.93,5.61,6,9.05,11.65,9.05a16.19,16.19,0,0,0,8-1.9s0,5.68-5.15,13.45h15.69c-5.24-8-5-13.61-5-13.61a18.09,18.09,0,0,0,8.43,2.09,11,11,0,0,0,10.95-10.54A11.14,11.14,0,0,0,2542.94,842Z" transform="translate(-26.68 -8.72)" fill="none" stroke="#1e1f29" stroke-miterlimit="10" stroke-width="3"/><path d="M2018.52,280.87a10.67,10.67,0,0,0-4.64,0,10.82,10.82,0,1,0-18.92-.16,11.64,11.64,0,0,0-1.45-.1,11,11,0,0,0-10.81,12.84c.93,5.61,6,9.05,11.65,9.05a16.26,16.26,0,0,0,8-1.9s0,5.67-5.16,13.45h15.7c-5.25-8-5-13.62-5-13.62a18,18,0,0,0,8.42,2.1,11,11,0,0,0,11-10.54A11.14,11.14,0,0,0,2018.52,280.87Z" transform="translate(-26.68 -8.72)" fill="none" stroke="#1e1f29" stroke-miterlimit="10" stroke-width="3"/><path d="M908.11,455.75a10.67,10.67,0,0,0-4.64,0,10.82,10.82,0,1,0-18.92-.15,11.65,11.65,0,0,0-1.45-.11,11,11,0,0,0-10.81,12.84c.93,5.62,6,9.06,11.65,9.06a16.19,16.19,0,0,0,8-1.91s0,5.68-5.16,13.46h15.7c-5.25-8-5-13.62-5-13.62a18,18,0,0,0,8.42,2.09,11,11,0,0,0,10.95-10.54A11.14,11.14,0,0,0,908.11,455.75Z" transform="translate(-26.68 -8.72)" fill="none" stroke="#1e1f29" stroke-miterlimit="10" stroke-width="3"/><path d="M344.05,606.69a10.48,10.48,0,0,0-4.63,0,10.83,10.83,0,1,0-18.93-.15,11.65,11.65,0,0,0-1.45-.11,11,11,0,0,0-10.8,12.84c.93,5.62,5.95,9.06,11.64,9.06a16.15,16.15,0,0,0,8-1.91s0,5.68-5.16,13.46h15.7c-5.25-8-5-13.62-5-13.62a18.07,18.07,0,0,0,8.42,2.09,11,11,0,0,0,11-10.53A11.11,11.11,0,0,0,344.05,606.69Z" transform="translate(-26.68 -8.72)" fill="none" stroke="#1e1f29" stroke-miterlimit="10" stroke-width="3"/><path d="M64.15,1238.21a10.67,10.67,0,0,0-4.64,0,10.82,10.82,0,1,0-18.92-.15,10,10,0,0,0-1.45-.11,11,11,0,0,0-10.81,12.84c.93,5.61,6,9,11.65,9a16.26,16.26,0,0,0,8-1.9s0,5.68-5.16,13.45h15.7c-5.25-8-5-13.62-5-13.62a18,18,0,0,0,8.42,2.1,11,11,0,0,0,10.95-10.54A11.14,11.14,0,0,0,64.15,1238.21Z" transform="translate(-26.68 -8.72)" fill="none" stroke="#1e1f29" stroke-miterlimit="10" stroke-width="3"/><path d="M483,1163.82c-5.33-7.9-5.2-13.9-5.2-13.9,10.52,4.14,15.11.33,17.61-3.84,2-3.34,2.33-10.33-2.38-15.16-3.42-3.51-18.34-21.37-18.34-21.37s-14.93,17.86-18.34,21.37c-4.71,4.83-4.4,11.82-2.39,15.16,2.51,4.17,8.9,7.42,17.59,4.09,0,0,.15,5.75-5.17,13.65Z" transform="translate(-26.68 -8.72)" fill="none" stroke="#1e1f29" stroke-miterlimit="10" stroke-width="3"/><path d="M550.71,161.85c-5.32-7.9-5.19-13.9-5.19-13.9,10.52,4.15,15.1.33,17.61-3.83,2-3.35,2.32-10.34-2.39-15.17-3.42-3.51-18.34-21.37-18.34-21.37S527.48,125.44,524.06,129c-4.71,4.83-4.4,11.82-2.38,15.17,2.5,4.16,8.9,7.41,17.59,4.08,0,0,.14,5.75-5.18,13.65Z" transform="translate(-26.68 -8.72)" fill="none" stroke="#1e1f29" stroke-miterlimit="10" stroke-width="3"/><path d="M1689.42,65.33c-5.32-7.9-5.19-13.9-5.19-13.9,10.52,4.14,15.1.33,17.61-3.84,2-3.34,2.33-10.33-2.38-15.16-3.42-3.51-18.34-21.37-18.34-21.37s-14.93,17.86-18.35,21.37c-4.7,4.83-4.39,11.82-2.38,15.16,2.51,4.17,8.9,7.42,17.59,4.09,0,0,.15,5.75-5.17,13.65Z" transform="translate(-26.68 -8.72)" fill="none" stroke="#1e1f29" stroke-miterlimit="10" stroke-width="3"/><path d="M2445.9,1241c-5.32-7.89-5.19-13.89-5.19-13.89,10.52,4.14,15.1.33,17.61-3.84,2-3.34,2.32-10.33-2.39-15.16-3.41-3.51-18.34-21.37-18.34-21.37s-14.92,17.86-18.34,21.37c-4.71,4.83-4.39,11.82-2.38,15.16,2.51,4.17,8.9,7.42,17.59,4.09,0,0,.15,5.75-5.17,13.64Z" transform="translate(-26.68 -8.72)" fill="none" stroke="#1e1f29" stroke-miterlimit="10" stroke-width="3"/></svg>